<svg width="25" height="26" viewBox="0 0 25 26" fill="none" xmlns="http://www.w3.org/2000/svg">
<path d="M5.83333 2.91113C5.11504 2.91113 4.42616 3.19647 3.91825 3.70439C3.41034 4.2123 3.125 4.90117 3.125 5.61947V10.6195C3.125 10.9751 3.19505 11.3273 3.33116 11.6559C3.46727 11.9845 3.66676 12.2831 3.91825 12.5345C4.42616 13.0425 5.11504 13.3278 5.83333 13.3278H8.75C9.46829 13.3278 10.1572 13.0425 10.6651 12.5345C11.173 12.0266 11.4583 11.3378 11.4583 10.6195V5.61947C11.4583 4.90117 11.173 4.2123 10.6651 3.70439C10.1572 3.19647 9.46829 2.91113 8.75 2.91113H5.83333ZM5.83333 15.4111C5.11504 15.4111 4.42616 15.6965 3.91825 16.2044C3.41034 16.7123 3.125 17.4012 3.125 18.1195V21.0361C3.125 21.7544 3.41034 22.4433 3.91825 22.9512C4.42616 23.4591 5.11504 23.7445 5.83333 23.7445H8.75C9.46829 23.7445 10.1572 23.4591 10.6651 22.9512C11.173 22.4433 11.4583 21.7544 11.4583 21.0361V18.1195C11.4583 17.4012 11.173 16.7123 10.6651 16.2044C10.1572 15.6965 9.46829 15.4111 8.75 15.4111H5.83333ZM16.25 2.91113C15.5317 2.91113 14.8428 3.19647 14.3349 3.70439C13.827 4.2123 13.5417 4.90117 13.5417 5.61947V8.53613C13.5417 9.25443 13.827 9.9433 14.3349 10.4512C14.8428 10.9591 15.5317 11.2445 16.25 11.2445H19.1667C19.5223 11.2445 19.8745 11.1744 20.2031 11.0383C20.5317 10.9022 20.8303 10.7027 21.0817 10.4512C21.3332 10.1997 21.5327 9.90116 21.6688 9.57257C21.8049 9.24398 21.875 8.8918 21.875 8.53613V5.61947C21.875 5.2638 21.8049 4.91162 21.6688 4.58303C21.5327 4.25444 21.3332 3.95588 21.0817 3.70439C20.8303 3.45289 20.5317 3.2534 20.2031 3.11729C19.8745 2.98119 19.5223 2.91113 19.1667 2.91113H16.25ZM16.25 13.3278C15.5317 13.3278 14.8428 13.6131 14.3349 14.1211C13.827 14.629 13.5417 15.3178 13.5417 16.0361V21.0361C13.5417 21.7544 13.827 22.4433 14.3349 22.9512C14.8428 23.4591 15.5317 23.7445 16.25 23.7445H19.1667C19.5223 23.7445 19.8745 23.6744 20.2031 23.5383C20.5317 23.4022 20.8303 23.2027 21.0817 22.9512C21.3332 22.6997 21.5327 22.4012 21.6688 22.0726C21.8049 21.744 21.875 21.3918 21.875 21.0361V16.0361C21.875 15.6805 21.8049 15.3283 21.6688 14.9997C21.5327 14.6711 21.3332 14.3725 21.0817 14.1211C20.8303 13.8696 20.5317 13.6701 20.2031 13.534C19.8745 13.3979 19.5223 13.3278 19.1667 13.3278H16.25Z" fill="url(#paint0_linear_270_30702)"/>
<defs>
<linearGradient id="paint0_linear_270_30702" x1="12.5" y1="2.91113" x2="12.5" y2="23.7445" gradientUnits="userSpaceOnUse">
<stop offset="0.242708" stop-color="#202C61"/>
<stop offset="0.779167" stop-color="#19505B"/>
<stop offset="1" stop-color="#1D6353"/>
</linearGradient>
</defs>
</svg>
