<svg width="23" height="18" viewBox="0 0 23 18" fill="none" xmlns="http://www.w3.org/2000/svg">
<path d="M2.48438 1.00583C2.24472 0.815672 1.94021 0.726775 1.63589 0.758127C1.33157 0.789479 1.05158 0.938593 0.855725 1.17362C0.659873 1.40864 0.563693 1.71093 0.587732 2.01591C0.611772 2.3209 0.754124 2.60439 0.984378 2.80583L4.59063 5.81208L0.984378 8.81833C0.754124 9.01976 0.611772 9.30325 0.587732 9.60824C0.563693 9.91322 0.659873 10.2155 0.855725 10.4505C1.05158 10.6856 1.33157 10.8347 1.63589 10.866C1.94021 10.8974 2.24472 10.8085 2.48438 10.6183L7.17188 6.71208C7.30376 6.6021 7.40986 6.46447 7.48267 6.30895C7.55548 6.15343 7.59322 5.9838 7.59322 5.81208C7.59322 5.64035 7.55548 5.47073 7.48267 5.3152C7.40986 5.15968 7.30376 5.02206 7.17188 4.91208L2.48438 1.00583ZM11.8906 4.6402C11.5798 4.6402 11.2818 4.76367 11.062 4.98344C10.8422 5.2032 10.7188 5.50128 10.7188 5.81208C10.7188 6.12288 10.8422 6.42095 11.062 6.64072C11.2818 6.86049 11.5798 6.98395 11.8906 6.98395H21.2656C21.5764 6.98395 21.8745 6.86049 22.0943 6.64072C22.314 6.42095 22.4375 6.12288 22.4375 5.81208C22.4375 5.50128 22.314 5.2032 22.0943 4.98344C21.8745 4.76367 21.5764 4.6402 21.2656 4.6402H11.8906ZM7.59375 11.2808C7.59375 10.97 7.71722 10.672 7.93699 10.4522C8.15676 10.2324 8.45483 10.109 8.76563 10.109H21.2656C21.5764 10.109 21.8745 10.2324 22.0943 10.4522C22.314 10.672 22.4375 10.97 22.4375 11.2808C22.4375 11.5916 22.314 11.8897 22.0943 12.1095C21.8745 12.3292 21.5764 12.4527 21.2656 12.4527H8.76563C8.45483 12.4527 8.15676 12.3292 7.93699 12.1095C7.71722 11.8897 7.59375 11.5916 7.59375 11.2808ZM8.76563 15.5777C8.45483 15.5777 8.15676 15.7012 7.93699 15.9209C7.71722 16.1407 7.59375 16.4388 7.59375 16.7496C7.59375 17.0604 7.71722 17.3584 7.93699 17.5782C8.15676 17.798 8.45483 17.9215 8.76563 17.9215H21.2656C21.5764 17.9215 21.8745 17.798 22.0943 17.5782C22.314 17.3584 22.4375 17.0604 22.4375 16.7496C22.4375 16.4388 22.314 16.1407 22.0943 15.9209C21.8745 15.7012 21.5764 15.5777 21.2656 15.5777H8.76563Z" fill="url(#paint0_linear_270_30687)"/>
<defs>
<linearGradient id="paint0_linear_270_30687" x1="11.5108" y1="0.751953" x2="11.5108" y2="17.9215" gradientUnits="userSpaceOnUse">
<stop offset="0.242708" stop-color="#202C61"/>
<stop offset="0.779167" stop-color="#19505B"/>
<stop offset="1" stop-color="#1D6353"/>
</linearGradient>
</defs>
</svg>
