<svg width="25" height="23" viewBox="0 0 25 23" fill="none" xmlns="http://www.w3.org/2000/svg">
<path d="M1.5625 0.5625H23.4375C24.3018 0.5625 25 1.26074 25 2.125V3.6875C25 4.55176 24.3018 5.25 23.4375 5.25H1.5625C0.698242 5.25 0 4.55176 0 3.6875V2.125C0 1.26074 0.698242 0.5625 1.5625 0.5625ZM1.5625 6.8125H23.4375V19.3125C23.4375 21.0361 22.0361 22.4375 20.3125 22.4375H4.6875C2.96387 22.4375 1.5625 21.0361 1.5625 19.3125V6.8125ZM7.8125 10.7188C7.8125 11.1484 8.16406 11.5 8.59375 11.5H16.4062C16.8359 11.5 17.1875 11.1484 17.1875 10.7188C17.1875 10.2891 16.8359 9.9375 16.4062 9.9375H8.59375C8.16406 9.9375 7.8125 10.2891 7.8125 10.7188Z" fill="#CE5C09"/>
</svg>
