<svg width="88" height="25" viewBox="0 0 88 25" fill="none" xmlns="http://www.w3.org/2000/svg">
<path d="M85.5 9.99999H8.53518L14.2674 4.26776C15.2437 3.29147 15.2437 1.70851 14.2674 0.732217C13.2911 -0.244072 11.7081 -0.244072 10.7319 0.732217L0.731894 10.7322L0.729433 10.7349C0.672245 10.7923 0.617871 10.8525 0.566308 10.9153C0.542402 10.9444 0.521777 10.975 0.499394 11.0049C0.47291 11.0403 0.445371 11.075 0.420762 11.1119C0.396855 11.1475 0.37623 11.1845 0.354433 11.2211C0.334511 11.2545 0.313535 11.2872 0.295137 11.3215C0.275215 11.3588 0.258222 11.3972 0.240293 11.4353C0.223301 11.4712 0.205488 11.5064 0.190136 11.5432C0.174902 11.5801 0.16248 11.6179 0.149121 11.6554C0.134941 11.6949 0.119824 11.7338 0.107636 11.7741C0.0962689 11.8116 0.0879485 11.8498 0.0784564 11.8876C0.0680267 11.9288 0.0565428 11.9694 0.0482225 12.0113C0.0395506 12.0552 0.0343939 12.0995 0.0279486 12.1437C0.0227923 12.1801 0.0157617 12.216 0.0121289 12.253C-0.00404297 12.4171 -0.00404297 12.5825 0.0121289 12.7465C0.0157617 12.7834 0.0226751 12.8193 0.0279486 12.8558C0.0342767 12.9 0.0394334 12.9444 0.0482225 12.9883C0.0565428 13.0302 0.0680267 13.0708 0.0784564 13.1119C0.0879485 13.1499 0.0962689 13.188 0.107636 13.2255C0.119824 13.2658 0.134941 13.3048 0.149121 13.3442C0.162598 13.3817 0.174902 13.4194 0.190136 13.4563C0.205371 13.4931 0.223301 13.5284 0.240293 13.5642C0.258222 13.6023 0.275098 13.6408 0.295137 13.678C0.313535 13.7124 0.334511 13.7451 0.354433 13.7785C0.37623 13.815 0.396973 13.8521 0.420762 13.8877C0.445488 13.9246 0.47291 13.9593 0.499394 13.9947C0.521777 14.0246 0.542519 14.0551 0.566308 14.0842C0.617753 14.1469 0.672128 14.2073 0.729433 14.2647L0.731894 14.2674L10.7319 24.2673C11.7081 25.2436 13.2911 25.2436 14.2674 24.2673C15.2437 23.291 15.2437 21.7081 14.2674 20.7318L8.53518 14.9996H85.5C86.8807 14.9996 88 13.8803 88 12.4996C88 11.1189 86.8807 9.99999 85.5 9.99999Z" fill="url(#paint0_linear_318_30971)"/>
<defs>
<linearGradient id="paint0_linear_318_30971" x1="44" y1="0" x2="44" y2="24.9995" gradientUnits="userSpaceOnUse">
<stop offset="0.242708" stop-color="#202C61"/>
<stop offset="0.779167" stop-color="#19505B"/>
<stop offset="1" stop-color="#1D6353"/>
</linearGradient>
</defs>
</svg>
