<svg xmlns="http://www.w3.org/2000/svg" width="57" height="55" viewBox="0 0 57 55" fill="none">
  <g filter="url(#filter0_d_1558_207)">
    <path d="M28.5 46.6098C42.031 46.6098 53 36.1758 53 23.3049C53 10.4339 42.031 0 28.5 0C14.969 0 4 10.4339 4 23.3049C4 36.1758 14.969 46.6098 28.5 46.6098Z" fill="white"/>
    <path fill-rule="evenodd" clip-rule="evenodd" d="M22.6547 15.3793C23.1843 14.5649 23.4491 14.1588 23.818 13.863C24.1443 13.6011 24.5282 13.4034 24.9449 13.2826C25.4155 13.1465 25.94 13.1465 26.9903 13.1465H30.0083C31.0599 13.1465 31.5844 13.1465 32.055 13.2826C32.4717 13.4034 32.8556 13.6011 33.1819 13.863C33.5508 14.1588 33.8156 14.5649 34.3452 15.3793L35.0881 16.5209H36.0292C37.7861 16.5209 38.6645 16.5209 39.3358 16.8269C39.926 17.0967 40.4057 17.5271 40.7062 18.0563C41.0487 18.6581 41.0487 19.4455 41.0487 21.0202V27.7692C41.0487 29.3439 41.0487 30.1313 40.7062 30.7331C40.4054 31.2619 39.9258 31.6918 39.3358 31.9614C38.6645 32.2684 37.7861 32.2684 36.0292 32.2684H20.9707C19.2139 32.2684 18.3354 32.2684 17.6641 31.9614C17.0737 31.692 16.5935 31.262 16.2925 30.7331C15.9512 30.1313 15.9512 29.3439 15.9512 27.7692V21.0202C15.9512 19.4455 15.9512 18.6581 16.2925 18.0563C16.5933 17.5269 17.0735 17.0965 17.6641 16.8269C18.3354 16.5209 19.2139 16.5209 20.9707 16.5209H21.9118L22.6547 15.3793ZM28.5 28.9502C30.0808 28.9502 31.5969 28.3873 32.7148 27.3853C33.8326 26.3833 34.4606 25.0243 34.4606 23.6073C34.4606 22.1903 33.8326 20.8313 32.7148 19.8293C31.5969 18.8273 30.0808 18.2644 28.5 18.2644C26.9191 18.2644 25.403 18.8273 24.2851 19.8293C23.1673 20.8313 22.5393 22.1903 22.5393 23.6073C22.5393 25.0243 23.1673 26.3833 24.2851 27.3853C25.403 28.3873 26.9191 28.9502 28.5 28.9502ZM31.8881 23.6073C31.8881 24.4128 31.5312 25.1853 30.8958 25.7548C30.2603 26.3244 29.3986 26.6443 28.5 26.6443C27.6014 26.6443 26.7396 26.3244 26.1042 25.7548C25.4687 25.1853 25.1118 24.4128 25.1118 23.6073C25.1118 22.8019 25.4687 22.0294 26.1042 21.4598C26.7396 20.8903 27.6014 20.5703 28.5 20.5703C29.3986 20.5703 30.2603 20.8903 30.8958 21.4598C31.5312 22.0294 31.8881 22.8019 31.8881 23.6073Z" fill="#1C274C"/>
  </g>
  <defs>
    <filter id="filter0_d_1558_207" x="0" y="0" width="57" height="54.6099" filterUnits="userSpaceOnUse" color-interpolation-filters="sRGB">
      <feFlood flood-opacity="0" result="BackgroundImageFix"/>
      <feColorMatrix in="SourceAlpha" type="matrix" values="0 0 0 0 0 0 0 0 0 0 0 0 0 0 0 0 0 0 127 0" result="hardAlpha"/>
      <feOffset dy="4"/>
      <feGaussianBlur stdDeviation="2"/>
      <feComposite in2="hardAlpha" operator="out"/>
      <feColorMatrix type="matrix" values="0 0 0 0 0 0 0 0 0 0 0 0 0 0 0 0 0 0 0.25 0"/>
      <feBlend mode="normal" in2="BackgroundImageFix" result="effect1_dropShadow_1558_207"/>
      <feBlend mode="normal" in="SourceGraphic" in2="effect1_dropShadow_1558_207" result="shape"/>
    </filter>
  </defs>
</svg>