<svg xmlns="http://www.w3.org/2000/svg" width="129" height="83" viewBox="0 0 129 83" fill="none">
  <g clip-path="url(#clip0_1768_330)">
    <rect width="128.999" height="82.0799" rx="3" fill="url(#paint0_linear_1768_330)"/>
    <g style="mix-blend-mode:hard-light">
      <path d="M5 -7.88037L126.925 63.8313C128.589 62.5353 129.63 61.0233 129.63 58.8633V9.83156V-2.26439L121.723 -7.88037H5Z" fill="#262523"/>
    </g>
    <path d="M118.193 -10.9932H10V71.0865H118.193V-10.9932Z" fill="white"/>
    <path d="M118.17 -11H64.0273V71.0962H118.17V-11Z" fill="#EFEFEF"/>
    <g style="mix-blend-mode:hard-light">
      <path d="M128.999 75.5997C128.999 79.2716 126.086 82.0796 122.549 82.0796H6.44995C2.91288 82.0796 0 79.2716 0 75.5997L2.08063 7.12797C2.08063 3.45598 4.99351 0 8.53058 0H120.677C124.214 0 127.126 3.45598 127.126 7.12797L128.999 75.5997Z" fill="url(#paint1_linear_1768_330)"/>
    </g>
    <path d="M128.167 78.8399L2.28869 4.96826C2.08063 5.83226 2.08063 6.69626 2.08063 7.56025L0 75.6C0 79.2719 2.91288 82.0799 6.44995 82.0799H122.549C124.838 82.0799 126.918 80.7839 128.167 78.8399Z" fill="url(#paint2_linear_1768_330)"/>
    <g style="mix-blend-mode:luminosity">
      <path d="M10.9179 30.9253C19.0125 34.4282 16.1991 40.7411 16.1991 40.7411C9.37135 41.2983 10.9179 30.9253 10.9179 30.9253Z" fill="#8AC054"/>
      <path d="M22.3494 33.8843C24.2725 44.2018 16.6304 45.4249 16.6304 45.4249C11.7548 38.9642 22.3494 33.8843 22.3494 33.8843Z" fill="#8AC054"/>
      <path d="M8 43.7759C17.8658 42.9321 18.1986 50.7735 18.1986 50.7735C11.6312 55.0078 8 43.7759 8 43.7759Z" fill="#8AC054"/>
      <path d="M22.1689 44.4648C28.7218 53.0594 22.2109 58.0002 22.2109 58.0002C14.7077 54.4486 22.1689 44.4648 22.1689 44.4648Z" fill="#8AC054"/>
      <path d="M10.2725 55.915C21.5877 51.4022 24.5741 60.5032 24.5741 60.5032C18.2571 67.823 10.2725 55.915 10.2725 55.915Z" fill="#8AC054"/>
      <path d="M26.2571 53.3022C35.6558 58.2682 31.7305 65.5726 31.7305 65.5726C23.4937 65.596 26.2571 53.3022 26.2571 53.3022Z" fill="#8AC054"/>
      <path d="M44.56 70.242C44.5002 70.242 44.4388 70.2369 44.3758 70.2267C31.8695 68.0475 23.177 62.9105 18.5406 54.9601C17.0588 52.4167 16.0035 49.5882 15.4072 46.5516C14.932 44.1341 14.7446 41.5791 14.8496 38.9602C15.0289 34.5044 15.989 31.4125 16.0293 31.2833C16.2184 30.681 16.8421 30.3538 17.4207 30.5501C17.9992 30.7464 18.3159 31.3924 18.1268 31.9929C18.1171 32.0231 17.209 34.9724 17.0506 39.1363C16.9084 42.9328 17.3804 48.558 20.4395 53.794C24.7315 61.137 32.9087 65.9067 44.741 67.9667C45.3422 68.0724 45.7478 68.6629 45.6478 69.2854C45.5571 69.8461 45.0902 70.242 44.56 70.242Z" fill="#79AA41"/>
      <path d="M22.2499 23.3672C23.1727 31.982 16.8104 32.4601 16.8104 32.4601C13.2147 26.813 22.2499 23.3672 22.2499 23.3672Z" fill="#8AC054"/>
    </g>
    <g style="mix-blend-mode:luminosity">
      <path d="M112.291 45.4806C113.552 43.8097 113.778 42.2326 113.421 40.8117C119.444 40.6238 118.005 30.979 118.005 30.979C113.075 33.1112 112.191 36.2887 112.254 38.4462C110.226 35.6914 106.572 33.94 106.572 33.94C104.649 44.2577 112.291 45.4806 112.291 45.4806Z" fill="#9ED36A"/>
      <path d="M110.723 50.8279C111.765 51.5006 112.733 51.7826 113.623 51.7826C118.35 51.7826 120.92 43.8304 120.92 43.8304C120.417 43.7867 119.937 43.7666 119.481 43.7666C111.022 43.7665 110.723 50.8279 110.723 50.8279Z" fill="#9ED36A"/>
      <path d="M109.607 55.2565C111.507 50.8829 106.751 44.5195 106.751 44.5195C101.389 51.5524 104.775 56.1389 106.182 57.5733C104.836 59.0548 104.343 60.5579 104.343 60.5579C105.828 62.2776 107.406 62.9369 108.951 62.9369C113.975 62.9369 118.647 55.9695 118.647 55.9695C116.397 55.0737 114.477 54.7145 112.845 54.7145C111.607 54.7146 110.533 54.921 109.607 55.2565Z" fill="#9ED36A"/>
      <path d="M96.9025 65.6277C105.13 64.9029 101.334 52.8809 101.334 52.8809C92.368 58.6921 96.9025 65.6277 96.9025 65.6277Z" fill="#9ED36A"/>
      <path d="M84.3596 70.2956C83.8312 70.2956 83.3625 69.8996 83.272 69.3393C83.1718 68.7169 83.5775 68.1263 84.1787 68.0206C96.0224 65.9571 104.204 61.1825 108.491 53.8277C111.557 48.5699 112.018 42.9229 111.866 39.1096C111.699 34.9658 110.802 32.0769 110.793 32.0483C110.604 31.4477 110.92 30.8001 111.499 30.6038C112.077 30.4076 112.701 30.7347 112.89 31.337C112.931 31.4663 113.891 34.5581 114.07 39.014C114.175 41.6328 113.987 44.1878 113.512 46.6054C112.916 49.6418 111.861 52.4721 110.379 55.0138C105.743 62.9642 97.0501 68.1012 84.5438 70.2804C84.4807 70.2906 84.4194 70.2956 84.3596 70.2956Z" fill="#8AC054"/>
      <path d="M112.114 32.5148C115.71 26.8678 106.674 23.4219 106.674 23.4219C105.752 32.0368 112.114 32.5148 112.114 32.5148Z" fill="#9ED36A"/>
    </g>
    <g style="mix-blend-mode:luminosity">
      <path d="M42.3613 29.7871H37.8942L34.7676 48.1819L37.8942 66.5767H42.3613V29.7871Z" fill="#B4B4B4"/>
      <path d="M37.8977 29.7871H33.4307V66.5763H37.8977V29.7871Z" fill="#E0E0E0"/>
      <path d="M59.9998 29.7871H55.5328L52.4062 48.1819L55.5328 66.5767H59.9998V29.7871Z" fill="#B4B4B4"/>
      <path d="M55.5325 29.7871H51.0654V66.5763H55.5325V29.7871Z" fill="#E0E0E0"/>
      <path d="M77.6356 29.7871H73.1687L70.042 48.1819L73.1687 66.5767H77.6356V29.7871Z" fill="#B4B4B4"/>
      <path d="M73.1692 29.7871H68.7021V66.5763H73.1692V29.7871Z" fill="#E0E0E0"/>
      <path d="M95.2733 29.7871H90.8063L87.6797 48.1819L90.8063 66.5767H95.2733V29.7871Z" fill="#B4B4B4"/>
      <path d="M90.805 29.7871H86.3379V66.5763H90.805V29.7871Z" fill="#E0E0E0"/>
      <path d="M64.3532 4L61.2266 20.6097L96.1676 17.3638L64.3532 4Z" fill="#B4B4B4"/>
      <path d="M32.5352 17.3638L64.3495 20.6097V4L32.5352 17.3638Z" fill="#E0E0E0"/>
      <path d="M97.694 74.5283V63.0981H64.3532L61.2266 74.5283H97.694Z" fill="#424242"/>
      <path d="M64.3528 63.0962H31.0117V74.5267H64.3528V63.0962Z" fill="#707070"/>
      <path d="M102.655 78.9994V70.0557H64.3532L61.2266 74.5275L64.3532 78.9994H102.655Z" fill="#707070"/>
      <path d="M64.3543 70.0557H26.0527V78.9997H64.3543V70.0557Z" fill="#B4B4B4"/>
      <path d="M97.694 21.8369H61.2266L64.3532 33.2671H97.694V21.8369Z" fill="#424242"/>
      <path d="M64.3528 21.8374H31.0117V33.2679H64.3528V21.8374Z" fill="#707070"/>
      <path d="M102.655 26.3092V17.3652H64.3532L61.2266 21.8373L64.3532 26.3092H102.655Z" fill="#707070"/>
      <path d="M64.3543 17.3623H26.0527V26.3064H64.3543V17.3623Z" fill="#B4B4B4"/>
    </g>
  </g>
  <defs>
    <linearGradient id="paint0_linear_1768_330" x1="64.4995" y1="0" x2="64.4995" y2="82.0799" gradientUnits="userSpaceOnUse">
      <stop offset="0.242708" stop-color="#202C61"/>
      <stop offset="0.779167" stop-color="#19505B"/>
      <stop offset="1" stop-color="#1D6353"/>
    </linearGradient>
    <linearGradient id="paint1_linear_1768_330" x1="64.4995" y1="0" x2="64.4995" y2="82.0796" gradientUnits="userSpaceOnUse">
      <stop offset="0.242708" stop-color="#202C61"/>
      <stop offset="0.779167" stop-color="#19505B"/>
      <stop offset="1" stop-color="#1D6353"/>
    </linearGradient>
    <linearGradient id="paint2_linear_1768_330" x1="64.0834" y1="4.96826" x2="64.0834" y2="82.0799" gradientUnits="userSpaceOnUse">
      <stop offset="0.242708" stop-color="#202C61"/>
      <stop offset="0.779167" stop-color="#19505B"/>
      <stop offset="1" stop-color="#1D6353"/>
    </linearGradient>
    <clipPath id="clip0_1768_330">
      <rect width="128.999" height="82.0799" rx="3" fill="white"/>
    </clipPath>
  </defs>
</svg>