<svg width="307" height="93" viewBox="0 0 307 93" fill="none" xmlns="http://www.w3.org/2000/svg">
<g clip-path="url(#clip0_1777_460)">
<rect width="93" height="93" rx="46.5" fill="white"/>
<path d="M127.989 -36.27H60.2803C58.0873 -36.27 56.1685 -36.27 53.9755 -32.8551L50.4119 -27.7327H-29.6321C-34.2922 -27.7327 -38.1299 -23.1794 -38.1299 -18.3415V93.4979C-38.1299 98.3358 -34.2922 103.174 -29.6321 103.174H123.329C127.989 103.174 131.826 98.3358 131.826 93.4979V6.98598V-18.057V-32.8551C131.826 -34.8471 130.182 -36.27 127.989 -36.27Z" fill="url(#paint0_linear_1777_460)"/>
<path d="M128.263 78.6999C130.456 76.9924 131.826 74.4312 131.826 71.5854V6.98597V-18.057V-32.8551C131.826 -34.8471 130.182 -36.27 127.989 -36.27H60.2803C58.0874 -36.27 56.1685 -36.27 53.9755 -32.8551L50.4119 -27.7327H-29.6321C-34.018 -27.7327 -37.5816 -24.0331 -38.1299 -19.7644L128.263 78.6999Z" fill="url(#paint1_linear_1777_460)"/>
<g style="mix-blend-mode:hard-light">
<path d="M-32.373 -16.3503L128.263 78.1299C130.456 76.4224 131.827 74.4303 131.827 71.5845V6.98513V-8.95129L121.41 -16.3503H-32.373Z" fill="#262523"/>
</g>
<path d="M118.121 -16.3503H-24.4229V91.7896H118.121V-16.3503Z" fill="white"/>
<path d="M118.11 -16.74H47.4302V92.07H118.11V-16.74Z" fill="#EFEFEF"/>
<g style="mix-blend-mode:hard-light">
<path d="M131.826 97.4825C131.826 102.32 127.989 106.02 123.329 106.02H-29.6321C-34.2922 106.02 -38.1299 102.32 -38.1299 97.4825L-35.3887 7.27098C-35.3887 2.43314 -31.5509 -2.12012 -26.8908 -2.12012H120.862C125.522 -2.12012 129.359 2.43314 129.359 7.27098L131.826 97.4825Z" fill="url(#paint2_linear_1777_460)"/>
</g>
<path d="M130.73 101.751L-35.1145 4.42529C-35.3887 5.56361 -35.3887 6.70193 -35.3887 7.84024L-38.1299 97.4826C-38.1299 102.32 -34.2922 106.02 -29.6321 106.02H123.329C126.344 106.02 129.085 104.312 130.73 101.751Z" fill="url(#paint3_linear_1777_460)"/>
<g clip-path="url(#clip1_1777_460)">
<rect x="-3.72021" y="13.95" width="102.313" height="65.1" rx="2.37939" fill="url(#paint4_linear_1777_460)"/>
<g style="mix-blend-mode:hard-light">
<path d="M0.245605 7.69946L96.9478 64.5761C98.268 63.5482 99.0931 62.349 99.0931 60.6359V21.7473V12.1537L92.8223 7.69946H0.245605Z" fill="#262523"/>
</g>
<path d="M93.9298 5.57983H6.50977V70.6798H93.9298V5.57983Z" fill="white"/>
<path d="M97.7288 5.51685H47.2881V70.9321H97.7288V5.51685Z" fill="#EFEFEF"/>
<g style="mix-blend-mode:hard-light">
<path d="M98.5798 72.7356C98.5798 76.3137 96.2698 79.0498 93.4648 79.0498H1.39478C-1.41022 79.0498 -3.72021 76.3137 -3.72021 72.7356L-2.07021 6.01545C-2.07021 2.4374 0.239785 -0.930176 3.04479 -0.930176H91.9798C94.7848 -0.930176 97.0948 2.4374 97.0948 6.01545L98.5798 72.7356Z" fill="url(#paint5_linear_1777_460)"/>
</g>
<path d="M97.9336 76.4799L-1.90401 17.8901C-2.06903 18.5754 -2.06903 19.2607 -2.06903 19.9459L-3.71924 73.9102C-3.71924 76.8226 -1.40895 79.0497 1.39641 79.0497H93.4781C95.2933 79.0497 96.9435 78.0218 97.9336 76.4799Z" fill="url(#paint6_linear_1777_460)"/>
<g style="mix-blend-mode:luminosity">
<path d="M4.94004 38.4773C11.3601 41.2556 9.12868 46.2625 9.12868 46.2625C3.71341 46.7044 4.94004 38.4773 4.94004 38.4773Z" fill="#8AC054"/>
<path d="M14.0069 40.8247C15.5322 49.0078 9.47098 49.9779 9.47098 49.9779C5.60398 44.8538 14.0069 40.8247 14.0069 40.8247Z" fill="#8AC054"/>
<path d="M2.62549 48.67C10.4504 48.0007 10.7143 54.22 10.7143 54.22C5.50547 57.5784 2.62549 48.67 2.62549 48.67Z" fill="#8AC054"/>
<path d="M13.8639 49.2161C19.0612 56.0327 13.8972 59.9514 13.8972 59.9514C7.94619 57.1345 13.8639 49.2161 13.8639 49.2161Z" fill="#8AC054"/>
<path d="M4.42822 58.2978C13.4027 54.7185 15.7713 61.9369 15.7713 61.9369C10.7611 67.7424 4.42822 58.2978 4.42822 58.2978Z" fill="#8AC054"/>
<path d="M17.1063 56.2256C24.5607 60.1642 21.4475 65.9575 21.4475 65.9575C14.9146 65.9761 17.1063 56.2256 17.1063 56.2256Z" fill="#8AC054"/>
<path d="M31.6228 69.661C31.5754 69.661 31.5266 69.657 31.4767 69.6489C21.5576 67.9204 14.6633 63.8462 10.9861 57.5404C9.81078 55.5232 8.97381 53.2798 8.50081 50.8715C8.12395 48.9541 7.97531 46.9276 8.05858 44.8505C8.20082 41.3164 8.96224 38.8642 8.99423 38.7617C9.14419 38.284 9.63892 38.0245 10.0978 38.1802C10.5566 38.3359 10.8078 38.8482 10.6578 39.3245C10.6501 39.3484 9.92989 41.6876 9.8043 44.9902C9.6915 48.0013 10.0658 52.4628 12.4921 56.6156C15.8962 62.4396 22.3818 66.2225 31.7663 67.8564C32.2432 67.9402 32.5648 68.4086 32.4855 68.9023C32.4136 69.347 32.0433 69.661 31.6228 69.661Z" fill="#79AA41"/>
<path d="M13.9278 32.4832C14.6597 39.3158 9.61353 39.695 9.61353 39.695C6.76169 35.2161 13.9278 32.4832 13.9278 32.4832Z" fill="#8AC054"/>
</g>
<g style="mix-blend-mode:luminosity">
<path d="M85.3427 50.0217C86.3424 48.6964 86.5218 47.4456 86.2386 46.3186C91.0155 46.1696 89.8748 38.52 89.8748 38.52C85.9643 40.2111 85.2632 42.7313 85.3132 44.4425C83.7047 42.2576 80.8067 40.8685 80.8067 40.8685C79.2814 49.0517 85.3427 50.0217 85.3427 50.0217Z" fill="#9ED36A"/>
<path d="M84.0986 54.2634C84.9252 54.7969 85.6931 55.0205 86.3993 55.0205C90.1483 55.0205 92.1862 48.7134 92.1862 48.7134C91.7876 48.6788 91.4069 48.6628 91.0455 48.6628C84.3358 48.6628 84.0986 54.2634 84.0986 54.2634Z" fill="#9ED36A"/>
<path d="M83.2135 57.7754C84.7207 54.3065 80.9487 49.2595 80.9487 49.2595C76.696 54.8375 79.3813 58.4752 80.4976 59.6129C79.4298 60.7878 79.039 61.98 79.039 61.98C80.2169 63.3439 81.4678 63.8668 82.6932 63.8668C86.6779 63.8668 90.3834 58.3408 90.3834 58.3408C88.5992 57.6303 87.0765 57.3455 85.7821 57.3455C84.8003 57.3456 83.9479 57.5092 83.2135 57.7754Z" fill="#9ED36A"/>
<path d="M73.137 66.0012C79.6621 65.4264 76.6515 55.8914 76.6515 55.8914C69.5405 60.5004 73.137 66.0012 73.137 66.0012Z" fill="#9ED36A"/>
<path d="M63.1891 69.7036C62.77 69.7036 62.3983 69.3895 62.3265 68.9451C62.247 68.4515 62.5688 67.9831 63.0456 67.8993C72.4392 66.2627 78.9285 62.4757 82.3288 56.6425C84.7602 52.4723 85.1255 47.9935 85.0051 44.9691C84.873 41.6825 84.1617 39.3912 84.154 39.3686C84.0041 38.8922 84.2552 38.3786 84.714 38.2229C85.1729 38.0672 85.6677 38.3267 85.8175 38.8044C85.8496 38.9069 86.611 41.3591 86.7532 44.8932C86.8365 46.9703 86.6878 48.9968 86.311 50.9142C85.838 53.3225 85.0011 55.5673 83.8258 57.5831C80.1487 63.8889 73.2543 67.9632 63.3352 69.6916C63.2851 69.6997 63.2365 69.7036 63.1891 69.7036Z" fill="#8AC054"/>
<path d="M85.2017 39.7387C88.0536 35.2599 80.8875 32.5269 80.8875 32.5269C80.1556 39.3596 85.2017 39.7387 85.2017 39.7387Z" fill="#9ED36A"/>
</g>
<g style="mix-blend-mode:luminosity">
<path d="M29.8788 37.5752H26.3358L23.856 52.1647L26.3358 66.7541H29.8788V37.5752Z" fill="#B4B4B4"/>
<path d="M26.3394 37.5752H22.7964V66.7538H26.3394V37.5752Z" fill="#E0E0E0"/>
<path d="M43.8684 37.5752H40.3254L37.8457 52.1647L40.3254 66.7541H43.8684V37.5752Z" fill="#B4B4B4"/>
<path d="M40.3257 37.5752H36.7827V66.7538H40.3257V37.5752Z" fill="#E0E0E0"/>
<path d="M57.8567 37.5752H54.3138L51.834 52.1647L54.3138 66.7541H57.8567V37.5752Z" fill="#B4B4B4"/>
<path d="M54.314 37.5752H50.771V66.7538H54.314V37.5752Z" fill="#E0E0E0"/>
<path d="M71.845 37.5752H68.3021L65.8223 52.1647L68.3021 66.7541H71.845V37.5752Z" fill="#B4B4B4"/>
<path d="M68.3013 37.5752H64.7583V66.7538H68.3013V37.5752Z" fill="#E0E0E0"/>
<path d="M47.3216 17.1223L44.8418 30.2959L72.5546 27.7215L47.3216 17.1223Z" fill="#B4B4B4"/>
<path d="M22.0864 27.7215L47.3194 30.2959V17.1223L22.0864 27.7215Z" fill="#E0E0E0"/>
<path d="M73.7652 73.0607V63.9951H47.3216L44.8418 73.0607H73.7652Z" fill="#424242"/>
<path d="M47.3207 63.9934H20.877V73.0592H47.3207V63.9934Z" fill="#707070"/>
<path d="M77.6988 76.6065V69.5129H47.3207L44.8408 73.0597L47.3207 76.6065H77.6988Z" fill="#707070"/>
<path d="M47.3224 69.5129H16.9443V76.6068H47.3224V69.5129Z" fill="#B4B4B4"/>
<path d="M73.7652 31.2695H44.8418L47.3216 40.3351H73.7652V31.2695Z" fill="#424242"/>
<path d="M47.3207 31.2703H20.877V40.3361H47.3207V31.2703Z" fill="#707070"/>
<path d="M77.6988 34.8171V27.7234H47.3207L44.8408 31.2703L47.3207 34.8171H77.6988Z" fill="#707070"/>
<path d="M47.3224 27.7207H16.9443V34.8145H47.3224V27.7207Z" fill="#B4B4B4"/>
</g>
</g>
</g>
<path d="M103.775 35.6523C103.775 34.7343 103.982 33.9108 104.396 33.1818C104.81 32.4438 105.372 31.8678 106.083 31.4538C106.803 31.0398 107.6 30.8328 108.473 30.8328C109.499 30.8328 110.394 31.0803 111.159 31.5753C111.924 32.0703 112.482 32.7723 112.833 33.6813H111.362C111.101 33.1143 110.723 32.6778 110.228 32.3718C109.742 32.0658 109.157 31.9128 108.473 31.9128C107.816 31.9128 107.226 32.0658 106.704 32.3718C106.182 32.6778 105.773 33.1143 105.476 33.6813C105.179 34.2393 105.03 34.8963 105.03 35.6523C105.03 36.3993 105.179 37.0563 105.476 37.6233C105.773 38.1813 106.182 38.6133 106.704 38.9193C107.226 39.2253 107.816 39.3783 108.473 39.3783C109.157 39.3783 109.742 39.2298 110.228 38.9328C110.723 38.6268 111.101 38.1903 111.362 37.6233H112.833C112.482 38.5233 111.924 39.2208 111.159 39.7158C110.394 40.2018 109.499 40.4448 108.473 40.4448C107.6 40.4448 106.803 40.2423 106.083 39.8373C105.372 39.4233 104.81 38.8518 104.396 38.1228C103.982 37.3938 103.775 36.5703 103.775 35.6523ZM119.819 38.2713H115.715L114.959 40.3638H113.663L117.065 31.0083H118.482L121.871 40.3638H120.575L119.819 38.2713ZM119.468 37.2723L117.767 32.5203L116.066 37.2723H119.468ZM132.493 31.0218V40.3638H131.265V33.3978L128.16 40.3638H127.296L124.177 33.3843V40.3638H122.949V31.0218H124.272L127.728 38.7438L131.184 31.0218H132.493ZM140.462 33.7083C140.462 34.4913 140.192 35.1438 139.652 35.6658C139.121 36.1788 138.307 36.4353 137.209 36.4353H135.4V40.3638H134.171V30.9543H137.209C138.271 30.9543 139.076 31.2108 139.625 31.7238C140.183 32.2368 140.462 32.8983 140.462 33.7083ZM137.209 35.4228C137.893 35.4228 138.397 35.2743 138.721 34.9773C139.045 34.6803 139.207 34.2573 139.207 33.7083C139.207 32.5473 138.541 31.9668 137.209 31.9668H135.4V35.4228H137.209ZM142.786 30.9543V36.9078C142.786 37.7448 142.988 38.3658 143.393 38.7708C143.807 39.1758 144.379 39.3783 145.108 39.3783C145.828 39.3783 146.39 39.1758 146.795 38.7708C147.209 38.3658 147.416 37.7448 147.416 36.9078V30.9543H148.645V36.8943C148.645 37.6773 148.487 38.3388 148.172 38.8788C147.857 39.4098 147.43 39.8058 146.89 40.0668C146.359 40.3278 145.76 40.4583 145.094 40.4583C144.428 40.4583 143.825 40.3278 143.285 40.0668C142.754 39.8058 142.331 39.4098 142.016 38.8788C141.71 38.3388 141.557 37.6773 141.557 36.8943V30.9543H142.786ZM153.273 40.4583C152.652 40.4583 152.094 40.3503 151.599 40.1343C151.113 39.9093 150.73 39.6033 150.451 39.2163C150.172 38.8203 150.028 38.3658 150.019 37.8528H151.329C151.374 38.2938 151.554 38.6673 151.869 38.9733C152.193 39.2703 152.661 39.4188 153.273 39.4188C153.858 39.4188 154.317 39.2748 154.65 38.9868C154.992 38.6898 155.163 38.3118 155.163 37.8528C155.163 37.4928 155.064 37.2003 154.866 36.9753C154.668 36.7503 154.42 36.5793 154.123 36.4623C153.826 36.3453 153.426 36.2193 152.922 36.0843C152.301 35.9223 151.801 35.7603 151.423 35.5983C151.054 35.4363 150.735 35.1843 150.465 34.8423C150.204 34.4913 150.073 34.0233 150.073 33.4383C150.073 32.9253 150.204 32.4708 150.465 32.0748C150.726 31.6788 151.09 31.3728 151.558 31.1568C152.035 30.9408 152.58 30.8328 153.192 30.8328C154.074 30.8328 154.794 31.0533 155.352 31.4943C155.919 31.9353 156.238 32.5203 156.31 33.2493H154.96C154.915 32.8893 154.726 32.5743 154.393 32.3043C154.06 32.0253 153.619 31.8858 153.07 31.8858C152.557 31.8858 152.139 32.0208 151.815 32.2908C151.491 32.5518 151.329 32.9208 151.329 33.3978C151.329 33.7398 151.423 34.0188 151.612 34.2348C151.81 34.4508 152.049 34.6173 152.328 34.7343C152.616 34.8423 153.016 34.9683 153.529 35.1123C154.15 35.2833 154.65 35.4543 155.028 35.6253C155.406 35.7873 155.73 36.0438 156 36.3948C156.27 36.7368 156.405 37.2048 156.405 37.7988C156.405 38.2578 156.283 38.6898 156.04 39.0948C155.797 39.4998 155.437 39.8283 154.96 40.0803C154.483 40.3323 153.921 40.4583 153.273 40.4583ZM165.956 40.3638L163.715 36.5163H162.23V40.3638H161.002V30.9543H164.039C164.75 30.9543 165.349 31.0758 165.835 31.3188C166.33 31.5618 166.699 31.8903 166.942 32.3043C167.185 32.7183 167.306 33.1908 167.306 33.7218C167.306 34.3698 167.117 34.9413 166.739 35.4363C166.37 35.9313 165.812 36.2598 165.065 36.4218L167.428 40.3638H165.956ZM162.23 35.5308H164.039C164.705 35.5308 165.205 35.3688 165.538 35.0448C165.871 34.7118 166.037 34.2708 166.037 33.7218C166.037 33.1638 165.871 32.7318 165.538 32.4258C165.214 32.1198 164.714 31.9668 164.039 31.9668H162.23V35.5308ZM170.039 31.9533V35.0988H173.468V36.1113H170.039V39.3513H173.873V40.3638H168.81V30.9408H173.873V31.9533H170.039ZM178.31 40.4583C177.689 40.4583 177.131 40.3503 176.636 40.1343C176.15 39.9093 175.767 39.6033 175.488 39.2163C175.209 38.8203 175.065 38.3658 175.056 37.8528H176.366C176.411 38.2938 176.591 38.6673 176.906 38.9733C177.23 39.2703 177.698 39.4188 178.31 39.4188C178.895 39.4188 179.354 39.2748 179.687 38.9868C180.029 38.6898 180.2 38.3118 180.2 37.8528C180.2 37.4928 180.101 37.2003 179.903 36.9753C179.705 36.7503 179.457 36.5793 179.16 36.4623C178.863 36.3453 178.463 36.2193 177.959 36.0843C177.338 35.9223 176.838 35.7603 176.46 35.5983C176.091 35.4363 175.772 35.1843 175.502 34.8423C175.241 34.4913 175.11 34.0233 175.11 33.4383C175.11 32.9253 175.241 32.4708 175.502 32.0748C175.763 31.6788 176.127 31.3728 176.595 31.1568C177.072 30.9408 177.617 30.8328 178.229 30.8328C179.111 30.8328 179.831 31.0533 180.389 31.4943C180.956 31.9353 181.275 32.5203 181.347 33.2493H179.997C179.952 32.8893 179.763 32.5743 179.43 32.3043C179.097 32.0253 178.656 31.8858 178.107 31.8858C177.594 31.8858 177.176 32.0208 176.852 32.2908C176.528 32.5518 176.366 32.9208 176.366 33.3978C176.366 33.7398 176.46 34.0188 176.649 34.2348C176.847 34.4508 177.086 34.6173 177.365 34.7343C177.653 34.8423 178.053 34.9683 178.566 35.1123C179.187 35.2833 179.687 35.4543 180.065 35.6253C180.443 35.7873 180.767 36.0438 181.037 36.3948C181.307 36.7368 181.442 37.2048 181.442 37.7988C181.442 38.2578 181.32 38.6898 181.077 39.0948C180.834 39.4998 180.474 39.8283 179.997 40.0803C179.52 40.3323 178.958 40.4583 178.31 40.4583ZM184.073 31.9533V35.0988H187.502V36.1113H184.073V39.3513H187.907V40.3638H182.845V30.9408H187.907V31.9533H184.073ZM194.923 38.2713H190.819L190.063 40.3638H188.767L192.169 31.0083H193.587L196.975 40.3638H195.679L194.923 38.2713ZM194.572 37.2723L192.871 32.5203L191.17 37.2723H194.572ZM203.007 40.3638L200.766 36.5163H199.281V40.3638H198.053V30.9543H201.09C201.801 30.9543 202.4 31.0758 202.886 31.3188C203.381 31.5618 203.75 31.8903 203.993 32.3043C204.236 32.7183 204.357 33.1908 204.357 33.7218C204.357 34.3698 204.168 34.9413 203.79 35.4363C203.421 35.9313 202.863 36.2598 202.116 36.4218L204.479 40.3638H203.007ZM199.281 35.5308H201.09C201.756 35.5308 202.256 35.3688 202.589 35.0448C202.922 34.7118 203.088 34.2708 203.088 33.7218C203.088 33.1638 202.922 32.7318 202.589 32.4258C202.265 32.1198 201.765 31.9668 201.09 31.9668H199.281V35.5308ZM205.402 35.6523C205.402 34.7343 205.609 33.9108 206.023 33.1818C206.437 32.4438 207 31.8678 207.711 31.4538C208.431 31.0398 209.227 30.8328 210.1 30.8328C211.126 30.8328 212.022 31.0803 212.787 31.5753C213.552 32.0703 214.11 32.7723 214.461 33.6813H212.989C212.728 33.1143 212.35 32.6778 211.855 32.3718C211.369 32.0658 210.784 31.9128 210.1 31.9128C209.443 31.9128 208.854 32.0658 208.332 32.3718C207.81 32.6778 207.4 33.1143 207.103 33.6813C206.806 34.2393 206.658 34.8963 206.658 35.6523C206.658 36.3993 206.806 37.0563 207.103 37.6233C207.4 38.1813 207.81 38.6133 208.332 38.9193C208.854 39.2253 209.443 39.3783 210.1 39.3783C210.784 39.3783 211.369 39.2298 211.855 38.9328C212.35 38.6268 212.728 38.1903 212.989 37.6233H214.461C214.11 38.5233 213.552 39.2208 212.787 39.7158C212.022 40.2018 211.126 40.4448 210.1 40.4448C209.227 40.4448 208.431 40.2423 207.711 39.8373C207 39.4233 206.437 38.8518 206.023 38.1228C205.609 37.3938 205.402 36.5703 205.402 35.6523ZM223.134 30.9543V40.3638H221.905V36.0978H217.113V40.3638H215.884V30.9543H217.113V35.0853H221.905V30.9543H223.134ZM232.975 40.3638L230.734 36.5163H229.249V40.3638H228.021V30.9543H231.058C231.769 30.9543 232.368 31.0758 232.854 31.3188C233.349 31.5618 233.718 31.8903 233.961 32.3043C234.204 32.7183 234.325 33.1908 234.325 33.7218C234.325 34.3698 234.136 34.9413 233.758 35.4363C233.389 35.9313 232.831 36.2598 232.084 36.4218L234.447 40.3638H232.975ZM229.249 35.5308H231.058C231.724 35.5308 232.224 35.3688 232.557 35.0448C232.89 34.7118 233.056 34.2708 233.056 33.7218C233.056 33.1638 232.89 32.7318 232.557 32.4258C232.233 32.1198 231.733 31.9668 231.058 31.9668H229.249V35.5308ZM237.058 31.9533V35.0988H240.487V36.1113H237.058V39.3513H240.892V40.3638H235.829V30.9408H240.892V31.9533H237.058ZM248.636 33.7083C248.636 34.4913 248.366 35.1438 247.826 35.6658C247.295 36.1788 246.481 36.4353 245.383 36.4353H243.574V40.3638H242.345V30.9543H245.383C246.445 30.9543 247.25 31.2108 247.799 31.7238C248.357 32.2368 248.636 32.8983 248.636 33.7083ZM245.383 35.4228C246.067 35.4228 246.571 35.2743 246.895 34.9773C247.219 34.6803 247.381 34.2573 247.381 33.7083C247.381 32.5473 246.715 31.9668 245.383 31.9668H243.574V35.4228H245.383ZM254.024 40.4583C253.151 40.4583 252.355 40.2558 251.635 39.8508C250.915 39.4368 250.343 38.8653 249.92 38.1363C249.506 37.3983 249.299 36.5703 249.299 35.6523C249.299 34.7343 249.506 33.9108 249.92 33.1818C250.343 32.4438 250.915 31.8723 251.635 31.4673C252.355 31.0533 253.151 30.8463 254.024 30.8463C254.906 30.8463 255.707 31.0533 256.427 31.4673C257.147 31.8723 257.714 32.4393 258.128 33.1683C258.542 33.8973 258.749 34.7253 258.749 35.6523C258.749 36.5793 258.542 37.4073 258.128 38.1363C257.714 38.8653 257.147 39.4368 256.427 39.8508C255.707 40.2558 254.906 40.4583 254.024 40.4583ZM254.024 39.3918C254.681 39.3918 255.271 39.2388 255.793 38.9328C256.324 38.6268 256.738 38.1903 257.035 37.6233C257.341 37.0563 257.494 36.3993 257.494 35.6523C257.494 34.8963 257.341 34.2393 257.035 33.6813C256.738 33.1143 256.328 32.6778 255.806 32.3718C255.284 32.0658 254.69 31.9128 254.024 31.9128C253.358 31.9128 252.764 32.0658 252.242 32.3718C251.72 32.6778 251.306 33.1143 251 33.6813C250.703 34.2393 250.555 34.8963 250.555 35.6523C250.555 36.3993 250.703 37.0563 251 37.6233C251.306 38.1903 251.72 38.6268 252.242 38.9328C252.773 39.2388 253.367 39.3918 254.024 39.3918ZM262.95 40.4583C262.329 40.4583 261.771 40.3503 261.276 40.1343C260.79 39.9093 260.407 39.6033 260.128 39.2163C259.849 38.8203 259.705 38.3658 259.696 37.8528H261.006C261.051 38.2938 261.231 38.6673 261.546 38.9733C261.87 39.2703 262.338 39.4188 262.95 39.4188C263.535 39.4188 263.994 39.2748 264.327 38.9868C264.669 38.6898 264.84 38.3118 264.84 37.8528C264.84 37.4928 264.741 37.2003 264.543 36.9753C264.345 36.7503 264.097 36.5793 263.8 36.4623C263.503 36.3453 263.103 36.2193 262.599 36.0843C261.978 35.9223 261.478 35.7603 261.1 35.5983C260.731 35.4363 260.412 35.1843 260.142 34.8423C259.881 34.4913 259.75 34.0233 259.75 33.4383C259.75 32.9253 259.881 32.4708 260.142 32.0748C260.403 31.6788 260.767 31.3728 261.235 31.1568C261.712 30.9408 262.257 30.8328 262.869 30.8328C263.751 30.8328 264.471 31.0533 265.029 31.4943C265.596 31.9353 265.915 32.5203 265.987 33.2493H264.637C264.592 32.8893 264.403 32.5743 264.07 32.3043C263.737 32.0253 263.296 31.8858 262.747 31.8858C262.234 31.8858 261.816 32.0208 261.492 32.2908C261.168 32.5518 261.006 32.9208 261.006 33.3978C261.006 33.7398 261.1 34.0188 261.289 34.2348C261.487 34.4508 261.726 34.6173 262.005 34.7343C262.293 34.8423 262.693 34.9683 263.206 35.1123C263.827 35.2833 264.327 35.4543 264.705 35.6253C265.083 35.7873 265.407 36.0438 265.677 36.3948C265.947 36.7368 266.082 37.2048 266.082 37.7988C266.082 38.2578 265.96 38.6898 265.717 39.0948C265.474 39.4998 265.114 39.8283 264.637 40.0803C264.16 40.3323 263.598 40.4583 262.95 40.4583ZM268.713 30.9543V40.3638H267.484V30.9543H268.713ZM276.193 30.9543V31.9533H273.628V40.3638H272.4V31.9533H269.821V30.9543H276.193ZM281.566 40.4583C280.693 40.4583 279.897 40.2558 279.177 39.8508C278.457 39.4368 277.885 38.8653 277.462 38.1363C277.048 37.3983 276.841 36.5703 276.841 35.6523C276.841 34.7343 277.048 33.9108 277.462 33.1818C277.885 32.4438 278.457 31.8723 279.177 31.4673C279.897 31.0533 280.693 30.8463 281.566 30.8463C282.448 30.8463 283.249 31.0533 283.969 31.4673C284.689 31.8723 285.256 32.4393 285.67 33.1683C286.084 33.8973 286.291 34.7253 286.291 35.6523C286.291 36.5793 286.084 37.4073 285.67 38.1363C285.256 38.8653 284.689 39.4368 283.969 39.8508C283.249 40.2558 282.448 40.4583 281.566 40.4583ZM281.566 39.3918C282.223 39.3918 282.813 39.2388 283.335 38.9328C283.866 38.6268 284.28 38.1903 284.577 37.6233C284.883 37.0563 285.036 36.3993 285.036 35.6523C285.036 34.8963 284.883 34.2393 284.577 33.6813C284.28 33.1143 283.87 32.6778 283.348 32.3718C282.826 32.0658 282.232 31.9128 281.566 31.9128C280.9 31.9128 280.306 32.0658 279.784 32.3718C279.262 32.6778 278.848 33.1143 278.542 33.6813C278.245 34.2393 278.097 34.8963 278.097 35.6523C278.097 36.3993 278.245 37.0563 278.542 37.6233C278.848 38.1903 279.262 38.6268 279.784 38.9328C280.315 39.2388 280.909 39.3918 281.566 39.3918ZM292.463 40.3638L290.222 36.5163H288.737V40.3638H287.508V30.9543H290.546C291.257 30.9543 291.855 31.0758 292.341 31.3188C292.836 31.5618 293.205 31.8903 293.448 32.3043C293.691 32.7183 293.813 33.1908 293.813 33.7218C293.813 34.3698 293.624 34.9413 293.246 35.4363C292.877 35.9313 292.319 36.2598 291.572 36.4218L293.934 40.3638H292.463ZM288.737 35.5308H290.546C291.212 35.5308 291.711 35.3688 292.044 35.0448C292.377 34.7118 292.544 34.2708 292.544 33.7218C292.544 33.1638 292.377 32.7318 292.044 32.4258C291.72 32.1198 291.221 31.9668 290.546 31.9668H288.737V35.5308ZM301.905 30.9543L298.84 36.8133V40.3638H297.612V36.8133L294.534 30.9543H295.897L298.219 35.7198L300.541 30.9543H301.905Z" fill="#231F20"/>
<path d="M124.754 60.6365V52.9009H127.251C127.8 52.9009 128.258 53.0067 128.626 53.2182C128.996 53.4272 129.274 53.7118 129.461 54.0718C129.65 54.4319 129.744 54.8373 129.744 55.2881C129.744 55.7388 129.651 56.1455 129.464 56.5081C129.278 56.8682 129.001 57.154 128.634 57.3655C128.266 57.5745 127.809 57.679 127.262 57.679H125.298V57.0444H127.244C127.649 57.0444 127.985 56.9689 128.252 56.8178C128.519 56.6642 128.718 56.4552 128.849 56.1908C128.982 55.9264 129.049 55.6255 129.049 55.2881C129.049 54.9507 128.982 54.6497 128.849 54.3853C128.718 54.1209 128.518 53.9132 128.248 53.7621C127.981 53.611 127.643 53.5355 127.232 53.5355H125.461V60.6365H124.754ZM131.03 60.6365V52.9009H131.736V56.4477H136.125V52.9009H136.832V60.6365H136.125V57.0822H131.736V60.6365H131.03ZM139.217 52.9009V60.6365H138.51V52.9009H139.217ZM146.925 52.9009V60.6365H146.238L141.668 54.1587H141.607V60.6365H140.901V52.9009H141.585L146.17 59.3862H146.23V52.9009H146.925ZM148.61 52.9009H149.426L152.232 59.6393H152.3L155.106 52.9009H155.922V60.6365H155.258V54.3929H155.197L152.587 60.6365H151.945L149.335 54.3929H149.275V60.6365H148.61V52.9009ZM157.618 60.6365H156.878L159.692 52.9009H160.447L163.261 60.6365H162.521L160.096 53.8188H160.043L157.618 60.6365ZM158.151 57.6714H161.988V58.306H158.151V57.6714ZM171.989 52.9009H172.696V58.0227C172.696 58.549 172.572 59.0199 172.326 59.4354C172.079 59.8483 171.735 60.1744 171.294 60.4136C170.856 60.6503 170.346 60.7687 169.765 60.7687C169.186 60.7687 168.676 60.6491 168.235 60.4098C167.794 60.1706 167.451 59.8445 167.204 59.4316C166.957 59.0186 166.834 58.549 166.834 58.0227V52.9009H167.54V57.9736C167.54 58.3841 167.632 58.7504 167.816 59.0727C168 59.3925 168.258 59.6444 168.59 59.8282C168.925 60.012 169.317 60.1039 169.765 60.1039C170.213 60.1039 170.605 60.012 170.939 59.8282C171.274 59.6444 171.532 59.3925 171.714 59.0727C171.898 58.7504 171.989 58.3841 171.989 57.9736V52.9009ZM174.909 57.0104V60.6365H174.237V54.8348H174.89V55.7451H174.951C175.086 55.448 175.298 55.21 175.585 55.0312C175.875 54.8499 176.232 54.7593 176.658 54.7593C177.048 54.7593 177.391 54.8411 177.685 55.0048C177.982 55.1659 178.213 55.4039 178.376 55.7187C178.543 56.0334 178.626 56.42 178.626 56.8782V60.6365H177.953V56.9198C177.953 56.4439 177.82 56.0674 177.553 55.7904C177.289 55.5134 176.933 55.3749 176.488 55.3749C176.183 55.3749 175.912 55.4404 175.676 55.5714C175.439 55.7023 175.251 55.8912 175.113 56.1379C174.977 56.3822 174.909 56.673 174.909 57.0104ZM180.031 60.6365V54.8348H180.708V60.6365H180.031ZM180.375 53.8377C180.237 53.8377 180.118 53.7911 180.02 53.6979C179.922 53.6022 179.873 53.4876 179.873 53.3542C179.873 53.2207 179.922 53.1074 180.02 53.0143C180.118 52.9186 180.237 52.8707 180.375 52.8707C180.514 52.8707 180.632 52.9186 180.73 53.0143C180.828 53.1074 180.878 53.2207 180.878 53.3542C180.878 53.4876 180.828 53.6022 180.73 53.6979C180.632 53.7911 180.514 53.8377 180.375 53.8377ZM186.604 54.8348L184.485 60.6365H183.768L181.649 54.8348H182.378L184.1 59.7489H184.153L185.875 54.8348H186.604ZM189.685 60.7573C189.144 60.7573 188.676 60.6314 188.28 60.3796C187.885 60.1253 187.579 59.774 187.362 59.3258C187.148 58.8751 187.041 58.3564 187.041 57.7696C187.041 57.1854 187.148 56.6667 187.362 56.2135C187.579 55.7577 187.877 55.4014 188.258 55.1445C188.64 54.8852 189.082 54.7555 189.583 54.7555C189.898 54.7555 190.202 54.8134 190.494 54.9292C190.786 55.0426 191.048 55.2176 191.279 55.4543C191.513 55.6885 191.699 55.9843 191.834 56.3419C191.97 56.6969 192.038 57.1175 192.038 57.6034V57.9358H187.506V57.3428H191.351C191.351 56.9702 191.275 56.6352 191.124 56.3381C190.976 56.0385 190.768 55.8018 190.501 55.628C190.237 55.4543 189.931 55.3674 189.583 55.3674C189.216 55.3674 188.892 55.4656 188.613 55.662C188.333 55.8584 188.114 56.1178 187.955 56.4401C187.799 56.7624 187.72 57.1149 187.717 57.4977V57.8527C187.717 58.3135 187.797 58.7164 187.955 59.0614C188.117 59.4039 188.344 59.6695 188.639 59.8584C188.934 60.0472 189.282 60.1417 189.685 60.1417C189.96 60.1417 190.2 60.0989 190.407 60.0133C190.616 59.9276 190.791 59.8131 190.932 59.6695C191.075 59.5235 191.184 59.3636 191.257 59.1898L191.895 59.3976C191.807 59.6418 191.662 59.8672 191.461 60.0737C191.262 60.2802 191.012 60.4464 190.713 60.5723C190.416 60.6956 190.073 60.7573 189.685 60.7573ZM193.148 60.6365V54.8348H193.801V55.7262H193.85C193.966 55.4341 194.168 55.1987 194.455 55.0199C194.744 54.8386 195.072 54.7479 195.437 54.7479C195.492 54.7479 195.554 54.7492 195.622 54.7517C195.69 54.7542 195.746 54.7568 195.792 54.7593V55.4429C195.762 55.4379 195.709 55.4303 195.633 55.4203C195.558 55.4102 195.476 55.4052 195.388 55.4052C195.085 55.4052 194.816 55.4694 194.579 55.5978C194.345 55.7237 194.16 55.8987 194.024 56.1228C193.888 56.3469 193.82 56.6025 193.82 56.8896V60.6365H193.148ZM200.465 56.1077L199.849 56.2815C199.789 56.1077 199.703 55.9503 199.592 55.8093C199.481 55.6683 199.337 55.5563 199.158 55.4732C198.982 55.3901 198.763 55.3485 198.501 55.3485C198.108 55.3485 197.786 55.4417 197.534 55.628C197.282 55.8144 197.156 56.0548 197.156 56.3494C197.156 56.5987 197.242 56.8014 197.413 56.9576C197.587 57.1112 197.854 57.2333 198.214 57.3239L199.09 57.5392C199.576 57.6576 199.94 57.8452 200.181 58.102C200.426 58.3589 200.548 58.6812 200.548 59.069C200.548 59.3963 200.457 59.6872 200.276 59.9415C200.095 60.1958 199.842 60.396 199.517 60.542C199.194 60.6856 198.82 60.7573 198.395 60.7573C197.828 60.7573 197.361 60.6302 196.994 60.3759C196.626 60.119 196.391 59.7489 196.287 59.2654L196.933 59.1067C197.016 59.4517 197.179 59.7123 197.42 59.8886C197.665 60.0649 197.986 60.153 198.384 60.153C198.829 60.153 199.186 60.0535 199.452 59.8546C199.719 59.6532 199.853 59.4014 199.853 59.0992C199.853 58.865 199.775 58.6686 199.619 58.51C199.463 58.3488 199.226 58.2305 198.909 58.1549L197.961 57.9283C197.457 57.8074 197.084 57.616 196.842 57.3542C196.601 57.0923 196.48 56.7674 196.48 56.3797C196.48 56.0599 196.567 55.7791 196.741 55.5374C196.914 55.2931 197.153 55.1017 197.458 54.9632C197.763 54.8247 198.11 54.7555 198.501 54.7555C199.032 54.7555 199.456 54.8764 199.774 55.1181C200.093 55.3573 200.324 55.6872 200.465 56.1077ZM201.655 60.6365V54.8348H202.331V60.6365H201.655ZM201.999 53.8377C201.86 53.8377 201.742 53.7911 201.644 53.6979C201.546 53.6022 201.497 53.4876 201.497 53.3542C201.497 53.2207 201.546 53.1074 201.644 53.0143C201.742 52.9186 201.86 52.8707 201.999 52.8707C202.137 52.8707 202.256 52.9186 202.354 53.0143C202.452 53.1074 202.501 53.2207 202.501 53.3542C202.501 53.4876 202.452 53.6022 202.354 53.6979C202.256 53.7911 202.137 53.8377 201.999 53.8377ZM206.022 54.8348V55.4203H203.254V54.8348H206.022ZM204.119 53.4448H204.795V59.1219C204.795 59.3636 204.836 59.5537 204.919 59.6922C205.003 59.8282 205.111 59.9251 205.244 59.983C205.378 60.0384 205.52 60.0661 205.671 60.0661C205.759 60.0661 205.835 60.0611 205.898 60.051C205.961 60.0384 206.016 60.0258 206.064 60.0133L206.207 60.6214C206.142 60.6465 206.061 60.6692 205.966 60.6894C205.87 60.712 205.752 60.7233 205.611 60.7233C205.364 60.7233 205.126 60.6692 204.897 60.5609C204.67 60.4527 204.484 60.2915 204.338 60.0775C204.192 59.8634 204.119 59.5978 204.119 59.2805V53.4448ZM207.645 62.8121C207.512 62.8121 207.387 62.7995 207.271 62.7743C207.156 62.7491 207.064 62.7214 206.996 62.6912L207.177 62.0982C207.406 62.1687 207.61 62.1939 207.789 62.1738C207.968 62.1561 208.126 62.0756 208.265 61.932C208.403 61.791 208.527 61.5745 208.635 61.2824L208.846 60.6931L206.712 54.8348H207.441L209.164 59.7489H209.217L210.939 54.8348H211.668L209.213 61.5543C209.11 61.8338 208.982 62.0667 208.831 62.2531C208.68 62.4419 208.505 62.5817 208.306 62.6723C208.11 62.7655 207.89 62.8121 207.645 62.8121ZM217.485 60.7573C216.984 60.7573 216.541 60.6302 216.156 60.3759C215.773 60.1215 215.473 59.7703 215.257 59.322C215.04 58.8713 214.932 58.3513 214.932 57.7621C214.932 57.1678 215.04 56.6453 215.257 56.1946C215.473 55.7413 215.773 55.3888 216.156 55.137C216.541 54.8827 216.984 54.7555 217.485 54.7555C217.986 54.7555 218.428 54.8827 218.811 55.137C219.194 55.3913 219.493 55.7438 219.71 56.1946C219.929 56.6453 220.039 57.1678 220.039 57.7621C220.039 58.3513 219.93 58.8713 219.714 59.322C219.497 59.7703 219.196 60.1215 218.811 60.3759C218.428 60.6302 217.986 60.7573 217.485 60.7573ZM217.485 60.1417C217.888 60.1417 218.229 60.0334 218.509 59.8168C218.788 59.6003 219 59.312 219.143 58.9519C219.289 58.5918 219.362 58.1952 219.362 57.7621C219.362 57.329 219.289 56.9311 219.143 56.5685C219 56.2059 218.788 55.9151 218.509 55.696C218.229 55.4769 217.888 55.3674 217.485 55.3674C217.085 55.3674 216.744 55.4769 216.462 55.696C216.182 55.9151 215.969 56.2059 215.823 56.5685C215.68 56.9311 215.608 57.329 215.608 57.7621C215.608 58.1952 215.68 58.5918 215.823 58.9519C215.969 59.312 216.182 59.6003 216.462 59.8168C216.741 60.0334 217.082 60.1417 217.485 60.1417ZM223.529 54.8348V55.4203H220.678V54.8348H223.529ZM221.569 60.6365V53.985C221.569 53.6727 221.641 53.4096 221.784 53.1956C221.93 52.9815 222.12 52.8191 222.355 52.7083C222.589 52.5975 222.837 52.5421 223.099 52.5421C223.275 52.5421 223.421 52.5572 223.537 52.5874C223.655 52.6151 223.748 52.6428 223.816 52.6705L223.62 53.2598C223.57 53.2447 223.508 53.227 223.435 53.2069C223.362 53.1867 223.27 53.1767 223.159 53.1767C222.867 53.1767 222.642 53.2585 222.483 53.4222C222.324 53.5859 222.245 53.82 222.245 54.1247L222.241 60.6365H221.569ZM227.258 60.6365V52.9009H229.754C230.303 52.9009 230.762 53.0067 231.129 53.2182C231.5 53.4272 231.778 53.7118 231.964 54.0718C232.153 54.4319 232.247 54.8373 232.247 55.2881C232.247 55.7388 232.154 56.1455 231.968 56.5081C231.782 56.8682 231.505 57.154 231.137 57.3655C230.769 57.5745 230.312 57.679 229.766 57.679H227.802V57.0444H229.747C230.152 57.0444 230.489 56.9689 230.755 56.8178C231.022 56.6642 231.221 56.4552 231.352 56.1908C231.486 55.9264 231.552 55.6255 231.552 55.2881C231.552 54.9507 231.486 54.6497 231.352 54.3853C231.221 54.1209 231.021 53.9132 230.752 53.7621C230.485 53.611 230.146 53.5355 229.736 53.5355H227.964V60.6365H227.258ZM235.014 60.7687C234.664 60.7687 234.344 60.7007 234.055 60.5647C233.765 60.4262 233.535 60.2273 233.363 59.9679C233.192 59.706 233.106 59.3888 233.106 59.0161C233.106 58.729 233.161 58.4873 233.269 58.2909C233.377 58.0945 233.531 57.9333 233.73 57.8074C233.929 57.6815 234.164 57.582 234.436 57.509C234.708 57.436 235.008 57.3793 235.335 57.3391C235.66 57.2988 235.934 57.2635 236.158 57.2333C236.385 57.2031 236.557 57.1552 236.676 57.0898C236.794 57.0243 236.853 56.9185 236.853 56.7725V56.6365C236.853 56.2412 236.735 55.9302 236.498 55.7036C236.264 55.4744 235.927 55.3598 235.486 55.3598C235.068 55.3598 234.727 55.4518 234.462 55.6356C234.201 55.8194 234.017 56.0359 233.911 56.2852L233.273 56.0548C233.404 55.7376 233.585 55.4845 233.817 55.2956C234.048 55.1043 234.308 54.967 234.595 54.8839C234.882 54.7983 235.173 54.7555 235.467 54.7555C235.689 54.7555 235.919 54.7845 236.158 54.8424C236.4 54.9003 236.624 55.001 236.831 55.1445C237.037 55.2856 237.205 55.4832 237.333 55.7376C237.461 55.9894 237.526 56.3092 237.526 56.6969V60.6365H236.853V59.7186H236.812C236.731 59.8899 236.612 60.0561 236.453 60.2172C236.294 60.3784 236.095 60.5106 235.856 60.6138C235.617 60.7171 235.336 60.7687 235.014 60.7687ZM235.105 60.153C235.462 60.153 235.772 60.0737 236.034 59.915C236.296 59.7564 236.497 59.5461 236.638 59.2843C236.782 59.0199 236.853 58.729 236.853 58.4118V57.5732C236.803 57.6211 236.719 57.6639 236.6 57.7017C236.484 57.7394 236.35 57.7734 236.196 57.8036C236.045 57.8313 235.894 57.8553 235.743 57.8754C235.592 57.8955 235.456 57.9132 235.335 57.9283C235.008 57.9686 234.728 58.0315 234.496 58.1171C234.265 58.2028 234.087 58.3211 233.964 58.4722C233.84 58.6208 233.779 58.8121 233.779 59.0463C233.779 59.3988 233.905 59.6721 234.156 59.8659C234.408 60.0573 234.724 60.153 235.105 60.153ZM239.614 57.0104V60.6365H238.942V54.8348H239.595V55.7451H239.656C239.792 55.448 240.003 55.21 240.29 55.0312C240.58 54.8499 240.937 54.7593 241.363 54.7593C241.753 54.7593 242.096 54.8411 242.39 55.0048C242.688 55.1659 242.918 55.4039 243.082 55.7187C243.248 56.0334 243.331 56.42 243.331 56.8782V60.6365H242.659V56.9198C242.659 56.4439 242.525 56.0674 242.258 55.7904C241.994 55.5134 241.639 55.3749 241.193 55.3749C240.888 55.3749 240.618 55.4404 240.381 55.5714C240.144 55.7023 239.957 55.8912 239.818 56.1379C239.682 56.3822 239.614 56.673 239.614 57.0104ZM246.943 62.933C246.547 62.933 246.201 62.8813 245.904 62.7781C245.607 62.6774 245.356 62.5389 245.152 62.3626C244.948 62.1864 244.79 61.9887 244.676 61.7696L245.228 61.407C245.311 61.5531 245.422 61.6966 245.56 61.8376C245.701 61.9786 245.884 62.0957 246.108 62.1889C246.334 62.282 246.613 62.3286 246.943 62.3286C247.456 62.3286 247.87 62.2002 248.185 61.9434C248.502 61.6865 248.661 61.2874 248.661 60.746V59.4391H248.601C248.523 59.6154 248.411 59.7917 248.265 59.9679C248.118 60.1417 247.927 60.2865 247.69 60.4023C247.456 60.5181 247.165 60.576 246.818 60.576C246.355 60.576 245.943 60.4615 245.583 60.2323C245.225 60.0032 244.943 59.6758 244.737 59.2503C244.533 58.8222 244.431 58.3123 244.431 57.7205C244.431 57.1338 244.53 56.6176 244.729 56.1719C244.931 55.7262 245.211 55.3787 245.571 55.1294C245.932 54.8801 246.351 54.7555 246.829 54.7555C247.184 54.7555 247.479 54.8185 247.713 54.9444C247.947 55.0677 248.135 55.2213 248.276 55.4052C248.419 55.589 248.531 55.7678 248.612 55.9415H248.68V54.8348H249.337V60.7876C249.337 61.2786 249.233 61.6827 249.024 62C248.815 62.3173 248.53 62.5515 248.17 62.7026C247.81 62.8562 247.401 62.933 246.943 62.933ZM246.897 59.9604C247.27 59.9604 247.588 59.871 247.853 59.6922C248.117 59.5109 248.32 59.2515 248.461 58.9141C248.602 58.5767 248.672 58.1751 248.672 57.7092C248.672 57.256 248.603 56.8543 248.465 56.5043C248.326 56.1518 248.125 55.8748 247.86 55.6733C247.598 55.4694 247.277 55.3674 246.897 55.3674C246.509 55.3674 246.182 55.4719 245.915 55.6809C245.648 55.8899 245.447 56.1719 245.311 56.527C245.175 56.8795 245.107 57.2736 245.107 57.7092C245.107 58.1524 245.176 58.544 245.315 58.8839C245.453 59.2213 245.656 59.4857 245.923 59.6771C246.19 59.8659 246.514 59.9604 246.897 59.9604ZM252.365 60.7687C252.015 60.7687 251.695 60.7007 251.406 60.5647C251.116 60.4262 250.886 60.2273 250.715 59.9679C250.543 59.706 250.458 59.3888 250.458 59.0161C250.458 58.729 250.512 58.4873 250.62 58.2909C250.729 58.0945 250.882 57.9333 251.081 57.8074C251.28 57.6815 251.515 57.582 251.787 57.509C252.059 57.436 252.359 57.3793 252.686 57.3391C253.011 57.2988 253.286 57.2635 253.51 57.2333C253.736 57.2031 253.909 57.1552 254.027 57.0898C254.146 57.0243 254.205 56.9185 254.205 56.7725V56.6365C254.205 56.2412 254.086 55.9302 253.85 55.7036C253.616 55.4744 253.278 55.3598 252.837 55.3598C252.419 55.3598 252.078 55.4518 251.814 55.6356C251.552 55.8194 251.368 56.0359 251.262 56.2852L250.624 56.0548C250.755 55.7376 250.936 55.4845 251.168 55.2956C251.4 55.1043 251.659 54.967 251.946 54.8839C252.233 54.7983 252.524 54.7555 252.819 54.7555C253.04 54.7555 253.271 54.7845 253.51 54.8424C253.752 54.9003 253.976 55.001 254.182 55.1445C254.389 55.2856 254.556 55.4832 254.684 55.7376C254.813 55.9894 254.877 56.3092 254.877 56.6969V60.6365H254.205V59.7186H254.163C254.083 59.8899 253.963 60.0561 253.804 60.2172C253.646 60.3784 253.447 60.5106 253.208 60.6138C252.968 60.7171 252.688 60.7687 252.365 60.7687ZM252.456 60.153C252.814 60.153 253.123 60.0737 253.385 59.915C253.647 59.7564 253.848 59.5461 253.989 59.2843C254.133 59.0199 254.205 58.729 254.205 58.4118V57.5732C254.154 57.6211 254.07 57.6639 253.952 57.7017C253.836 57.7394 253.701 57.7734 253.548 57.8036C253.396 57.8313 253.245 57.8553 253.094 57.8754C252.943 57.8955 252.807 57.9132 252.686 57.9283C252.359 57.9686 252.079 58.0315 251.848 58.1171C251.616 58.2028 251.439 58.3211 251.315 58.4722C251.192 58.6208 251.13 58.8121 251.13 59.0463C251.13 59.3988 251.256 59.6721 251.508 59.8659C251.76 60.0573 252.076 60.153 252.456 60.153ZM260.191 56.1077L259.576 56.2815C259.515 56.1077 259.43 55.9503 259.319 55.8093C259.208 55.6683 259.063 55.5563 258.884 55.4732C258.708 55.3901 258.489 55.3485 258.227 55.3485C257.834 55.3485 257.512 55.4417 257.26 55.628C257.008 55.8144 256.883 56.0548 256.883 56.3494C256.883 56.5987 256.968 56.8014 257.139 56.9576C257.313 57.1112 257.58 57.2333 257.94 57.3239L258.816 57.5392C259.302 57.6576 259.666 57.8452 259.908 58.102C260.152 58.3589 260.274 58.6812 260.274 59.069C260.274 59.3963 260.184 59.6872 260.002 59.9415C259.821 60.1958 259.568 60.396 259.243 60.542C258.921 60.6856 258.547 60.7573 258.121 60.7573C257.555 60.7573 257.088 60.6302 256.72 60.3759C256.352 60.119 256.117 59.7489 256.014 59.2654L256.66 59.1067C256.743 59.4517 256.905 59.7123 257.147 59.8886C257.391 60.0649 257.712 60.153 258.11 60.153C258.556 60.153 258.912 60.0535 259.179 59.8546C259.446 59.6532 259.579 59.4014 259.579 59.0992C259.579 58.865 259.501 58.6686 259.345 58.51C259.189 58.3488 258.952 58.2305 258.635 58.1549L257.687 57.9283C257.183 57.8074 256.811 57.616 256.569 57.3542C256.327 57.0923 256.206 56.7674 256.206 56.3797C256.206 56.0599 256.293 55.7791 256.467 55.5374C256.641 55.2931 256.88 55.1017 257.185 54.9632C257.489 54.8247 257.837 54.7555 258.227 54.7555C258.758 54.7555 259.183 54.8764 259.5 55.1181C259.82 55.3573 260.05 55.6872 260.191 56.1077ZM261.382 60.6365V54.8348H262.058V60.6365H261.382ZM261.725 53.8377C261.587 53.8377 261.469 53.7911 261.37 53.6979C261.272 53.6022 261.223 53.4876 261.223 53.3542C261.223 53.2207 261.272 53.1074 261.37 53.0143C261.469 52.9186 261.587 52.8707 261.725 52.8707C261.864 52.8707 261.982 52.9186 262.081 53.0143C262.179 53.1074 262.228 53.2207 262.228 53.3542C262.228 53.4876 262.179 53.6022 262.081 53.6979C261.982 53.7911 261.864 53.8377 261.725 53.8377ZM264.136 57.0104V60.6365H263.464V54.8348H264.117V55.7451H264.178C264.314 55.448 264.525 55.21 264.812 55.0312C265.102 54.8499 265.459 54.7593 265.885 54.7593C266.275 54.7593 266.618 54.8411 266.912 55.0048C267.209 55.1659 267.44 55.4039 267.603 55.7187C267.77 56.0334 267.853 56.42 267.853 56.8782V60.6365H267.18V56.9198C267.18 56.4439 267.047 56.0674 266.78 55.7904C266.516 55.5134 266.161 55.3749 265.715 55.3749C265.41 55.3749 265.139 55.4404 264.903 55.5714C264.666 55.7023 264.478 55.8912 264.34 56.1379C264.204 56.3822 264.136 56.673 264.136 57.0104ZM270.871 60.7687C270.521 60.7687 270.202 60.7007 269.912 60.5647C269.622 60.4262 269.392 60.2273 269.221 59.9679C269.05 59.706 268.964 59.3888 268.964 59.0161C268.964 58.729 269.018 58.4873 269.126 58.2909C269.235 58.0945 269.388 57.9333 269.587 57.8074C269.786 57.6815 270.021 57.582 270.293 57.509C270.565 57.436 270.865 57.3793 271.192 57.3391C271.517 57.2988 271.792 57.2635 272.016 57.2333C272.242 57.2031 272.415 57.1552 272.533 57.0898C272.652 57.0243 272.711 56.9185 272.711 56.7725V56.6365C272.711 56.2412 272.592 55.9302 272.356 55.7036C272.122 55.4744 271.784 55.3598 271.343 55.3598C270.925 55.3598 270.584 55.4518 270.32 55.6356C270.058 55.8194 269.874 56.0359 269.768 56.2852L269.13 56.0548C269.261 55.7376 269.442 55.4845 269.674 55.2956C269.906 55.1043 270.165 54.967 270.452 54.8839C270.739 54.7983 271.03 54.7555 271.325 54.7555C271.546 54.7555 271.777 54.7845 272.016 54.8424C272.258 54.9003 272.482 55.001 272.688 55.1445C272.895 55.2856 273.062 55.4832 273.19 55.7376C273.319 55.9894 273.383 56.3092 273.383 56.6969V60.6365H272.711V59.7186H272.669C272.589 59.8899 272.469 60.0561 272.31 60.2172C272.152 60.3784 271.953 60.5106 271.714 60.6138C271.474 60.7171 271.194 60.7687 270.871 60.7687ZM270.962 60.153C271.32 60.153 271.629 60.0737 271.891 59.915C272.153 59.7564 272.354 59.5461 272.495 59.2843C272.639 59.0199 272.711 58.729 272.711 58.4118V57.5732C272.66 57.6211 272.576 57.6639 272.458 57.7017C272.342 57.7394 272.207 57.7734 272.054 57.8036C271.902 57.8313 271.751 57.8553 271.6 57.8754C271.449 57.8955 271.313 57.9132 271.192 57.9283C270.865 57.9686 270.586 58.0315 270.354 58.1171C270.122 58.2028 269.945 58.3211 269.821 58.4722C269.698 58.6208 269.636 58.8121 269.636 59.0463C269.636 59.3988 269.762 59.6721 270.014 59.8659C270.266 60.0573 270.582 60.153 270.962 60.153ZM275.472 57.0104V60.6365H274.799V54.8348H275.453V55.7451H275.513C275.649 55.448 275.861 55.21 276.148 55.0312C276.437 54.8499 276.795 54.7593 277.22 54.7593C277.611 54.7593 277.953 54.8411 278.248 55.0048C278.545 55.1659 278.775 55.4039 278.939 55.7187C279.105 56.0334 279.188 56.42 279.188 56.8782V60.6365H278.516V56.9198C278.516 56.4439 278.383 56.0674 278.116 55.7904C277.851 55.5134 277.496 55.3749 277.05 55.3749C276.746 55.3749 276.475 55.4404 276.238 55.5714C276.002 55.7023 275.814 55.8912 275.676 56.1379C275.54 56.3822 275.472 56.673 275.472 57.0104Z" fill="#231F20"/>
<defs>
<linearGradient id="paint0_linear_1777_460" x1="46.8483" y1="-36.27" x2="46.8483" y2="103.174" gradientUnits="userSpaceOnUse">
<stop offset="0.242708" stop-color="#202C61"/>
<stop offset="0.779167" stop-color="#19505B"/>
<stop offset="1" stop-color="#1D6353"/>
</linearGradient>
<linearGradient id="paint1_linear_1777_460" x1="46.8483" y1="-36.27" x2="46.8483" y2="78.6999" gradientUnits="userSpaceOnUse">
<stop offset="0.242708" stop-color="#202C61"/>
<stop offset="0.779167" stop-color="#19505B"/>
<stop offset="1" stop-color="#1D6353"/>
</linearGradient>
<linearGradient id="paint2_linear_1777_460" x1="46.8483" y1="-2.12012" x2="46.8483" y2="106.02" gradientUnits="userSpaceOnUse">
<stop offset="0.242708" stop-color="#202C61"/>
<stop offset="0.779167" stop-color="#19505B"/>
<stop offset="1" stop-color="#1D6353"/>
</linearGradient>
<linearGradient id="paint3_linear_1777_460" x1="46.3" y1="4.42529" x2="46.3" y2="106.02" gradientUnits="userSpaceOnUse">
<stop offset="0.242708" stop-color="#202C61"/>
<stop offset="0.779167" stop-color="#19505B"/>
<stop offset="1" stop-color="#1D6353"/>
</linearGradient>
<linearGradient id="paint4_linear_1777_460" x1="47.4363" y1="13.95" x2="47.4363" y2="79.0499" gradientUnits="userSpaceOnUse">
<stop offset="0.242708" stop-color="#202C61"/>
<stop offset="0.779167" stop-color="#19505B"/>
<stop offset="1" stop-color="#1D6353"/>
</linearGradient>
<linearGradient id="paint5_linear_1777_460" x1="47.4298" y1="-0.930176" x2="47.4298" y2="79.0498" gradientUnits="userSpaceOnUse">
<stop offset="0.242708" stop-color="#202C61"/>
<stop offset="0.779167" stop-color="#19505B"/>
<stop offset="1" stop-color="#1D6353"/>
</linearGradient>
<linearGradient id="paint6_linear_1777_460" x1="47.1072" y1="17.8901" x2="47.1072" y2="79.0497" gradientUnits="userSpaceOnUse">
<stop offset="0.242708" stop-color="#202C61"/>
<stop offset="0.779167" stop-color="#19505B"/>
<stop offset="1" stop-color="#1D6353"/>
</linearGradient>
<clipPath id="clip0_1777_460">
<rect width="93" height="93" rx="46.5" fill="white"/>
</clipPath>
<clipPath id="clip1_1777_460">
<rect x="-3.72021" y="13.95" width="102.313" height="65.1" rx="2.37939" fill="white"/>
</clipPath>
</defs>
</svg>
