<svg width="104" height="104" viewBox="0 0 104 104" fill="none" xmlns="http://www.w3.org/2000/svg">
<g clip-path="url(#clip0_1777_275)">
<rect width="104" height="104" rx="52" fill="white"/>
<path d="M143.127 -40.5601H67.41C64.9576 -40.5601 62.8118 -40.5601 60.3594 -36.7412L56.3743 -31.0129H-33.1372C-38.3485 -31.0129 -42.6401 -25.9211 -42.6401 -20.511V104.557C-42.6401 109.967 -38.3485 115.377 -33.1372 115.377H137.916C143.127 115.377 147.419 109.967 147.419 104.557V7.81224V-20.1928V-36.7412C147.419 -38.9689 145.579 -40.5601 143.127 -40.5601Z" fill="url(#paint0_linear_1777_275)"/>
<path d="M143.433 88.0084C145.886 86.099 147.419 83.2348 147.419 80.0524V7.81224V-20.1928V-36.7412C147.419 -38.9689 145.579 -40.5601 143.127 -40.5601H67.41C64.9576 -40.5601 62.8118 -40.5601 60.3594 -36.7412L56.3743 -31.0129H-33.1372C-38.0419 -31.0129 -42.027 -26.8758 -42.6401 -22.1022L143.433 88.0084Z" fill="url(#paint1_linear_1777_275)"/>
<g style="mix-blend-mode:hard-light">
<path d="M-36.2021 -18.2842L143.434 87.3711C145.886 85.4617 147.419 83.234 147.419 80.0516V7.8114V-10.01L135.77 -18.2842H-36.2021Z" fill="#262523"/>
</g>
<path d="M132.093 -18.2842H-27.3115V102.647H132.093V-18.2842Z" fill="white"/>
<path d="M132.08 -18.7202H53.04V102.96H132.08V-18.7202Z" fill="#EFEFEF"/>
<g style="mix-blend-mode:hard-light">
<path d="M147.419 109.012C147.419 114.423 143.127 118.56 137.916 118.56H-33.1372C-38.3485 118.56 -42.6401 114.423 -42.6401 109.012L-39.5747 8.13078C-39.5747 2.72072 -35.283 -2.37109 -30.0717 -2.37109H135.157C140.368 -2.37109 144.66 2.72072 144.66 8.13078L147.419 109.012Z" fill="url(#paint2_linear_1777_275)"/>
</g>
<path d="M146.192 113.786L-39.2681 4.94873C-39.5747 6.22169 -39.5747 7.49464 -39.5747 8.7676L-42.6401 109.013C-42.6401 114.423 -38.3485 118.56 -33.1372 118.56H137.916C141.288 118.56 144.353 116.651 146.192 113.786Z" fill="url(#paint3_linear_1777_275)"/>
<g clip-path="url(#clip1_1777_275)">
<rect x="-4.16016" y="15.6001" width="114.414" height="72.8" rx="2.66082" fill="url(#paint4_linear_1777_275)"/>
<g style="mix-blend-mode:hard-light">
<path d="M0.274902 8.61035L108.415 72.2143C109.891 71.0649 110.814 69.7238 110.814 67.808V24.3198V13.5914L103.802 8.61035H0.274902Z" fill="#262523"/>
</g>
<path d="M105.04 6.23975H7.27979V79.0397H105.04V6.23975Z" fill="white"/>
<path d="M109.288 6.16943H52.8813V79.322H109.288V6.16943Z" fill="#EFEFEF"/>
<g style="mix-blend-mode:hard-light">
<path d="M110.24 81.3389C110.24 85.3402 107.657 88.4 104.52 88.4H1.55984C-1.57693 88.4 -4.16016 85.3402 -4.16016 81.3389L-2.315 6.72712C-2.315 2.72585 0.268231 -1.04004 3.40501 -1.04004H102.859C105.996 -1.04004 108.579 2.72585 108.579 6.72712L110.24 81.3389Z" fill="url(#paint5_linear_1777_275)"/>
</g>
<path d="M109.517 85.5261L-2.12925 20.0063C-2.31378 20.7727 -2.31378 21.539 -2.31378 22.3053L-4.15918 82.6524C-4.15918 85.9093 -1.57563 88.3998 1.56154 88.3998H104.535C106.565 88.3998 108.41 87.2503 109.517 85.5261Z" fill="url(#paint6_linear_1777_275)"/>
<g style="mix-blend-mode:luminosity">
<path d="M5.52445 43.0283C12.7039 46.1352 10.2085 51.7344 10.2085 51.7344C4.15274 52.2286 5.52445 43.0283 5.52445 43.0283Z" fill="#8AC054"/>
<path d="M15.6638 45.6533C17.3694 54.8043 10.5913 55.8891 10.5913 55.8891C6.26693 50.1589 15.6638 45.6533 15.6638 45.6533Z" fill="#8AC054"/>
<path d="M2.93604 54.4265C11.6864 53.678 11.9815 60.6328 11.9815 60.6328C6.15666 64.3885 2.93604 54.4265 2.93604 54.4265Z" fill="#8AC054"/>
<path d="M15.5034 55.0371C21.3155 62.66 15.5407 67.0422 15.5407 67.0422C8.88576 63.8921 15.5034 55.0371 15.5034 55.0371Z" fill="#8AC054"/>
<path d="M4.95215 65.1929C14.9881 61.1903 17.6369 69.2624 17.6369 69.2624C12.0341 75.7546 4.95215 65.1929 4.95215 65.1929Z" fill="#8AC054"/>
<path d="M19.1296 62.8755C27.4657 67.28 23.9842 73.7585 23.9842 73.7585C16.6786 73.7793 19.1296 62.8755 19.1296 62.8755Z" fill="#8AC054"/>
<path d="M35.3628 77.9003C35.3098 77.9003 35.2553 77.8959 35.1994 77.8868C24.1071 75.9539 16.3974 71.3978 12.2852 64.3462C10.9709 62.0904 10.0349 59.5816 9.50597 56.8884C9.08454 54.7442 8.91831 52.4781 9.01142 50.1553C9.17049 46.2032 10.022 43.4609 10.0578 43.3463C10.2254 42.8121 10.7787 42.5219 11.2919 42.696C11.8049 42.8701 12.0858 43.443 11.9181 43.9757C11.9095 44.0024 11.1041 46.6183 10.9636 50.3115C10.8375 53.6788 11.2561 58.668 13.9693 63.3119C17.7761 69.8248 25.0288 74.0552 35.5233 75.8823C36.0566 75.976 36.4163 76.4998 36.3276 77.0519C36.2472 77.5492 35.833 77.9003 35.3628 77.9003Z" fill="#79AA41"/>
<path d="M15.575 36.3252C16.3934 43.966 10.7505 44.3901 10.7505 44.3901C7.56132 39.3814 15.575 36.3252 15.575 36.3252Z" fill="#8AC054"/>
</g>
<g style="mix-blend-mode:luminosity">
<path d="M95.4371 55.9383C96.5551 54.4562 96.7557 53.0574 96.439 51.7972C101.781 51.6305 100.505 43.0762 100.505 43.0762C96.1323 44.9673 95.3482 47.7856 95.4042 49.6991C93.6054 47.2558 90.3647 45.7024 90.3647 45.7024C88.6589 54.8535 95.4371 55.9383 95.4371 55.9383Z" fill="#9ED36A"/>
<path d="M94.0459 60.6814C94.9702 61.278 95.8289 61.5281 96.6187 61.5281C100.811 61.5281 103.09 54.475 103.09 54.475C102.644 54.4363 102.219 54.4185 101.814 54.4185C94.3111 54.4184 94.0459 60.6814 94.0459 60.6814Z" fill="#9ED36A"/>
<path d="M93.0564 64.609C94.7419 60.7299 90.5237 55.0859 90.5237 55.0859C85.7679 61.3237 88.7709 65.3917 90.0192 66.6639C88.8252 67.9778 88.3882 69.311 88.3882 69.311C89.7053 70.8363 91.1041 71.421 92.4745 71.421C96.9306 71.421 101.074 65.2414 101.074 65.2414C99.0791 64.4468 97.3763 64.1283 95.9288 64.1283C94.8309 64.1284 93.8777 64.3114 93.0564 64.609Z" fill="#9ED36A"/>
<path d="M81.788 73.8076C89.085 73.1648 85.7182 62.502 85.7182 62.502C77.7662 67.6562 81.788 73.8076 81.788 73.8076Z" fill="#9ED36A"/>
<path d="M70.6631 77.9481C70.1945 77.9481 69.7788 77.5969 69.6985 77.0999C69.6097 76.5479 69.9694 76.0241 70.5027 75.9304C81.0073 74.1002 88.2642 69.8653 92.0667 63.3421C94.7857 58.6787 95.1942 53.6701 95.0595 50.288C94.9118 46.6127 94.1164 44.0504 94.1078 44.0251C93.9401 43.4923 94.221 42.918 94.7341 42.7439C95.2472 42.5698 95.8005 42.86 95.9681 43.3941C96.004 43.5088 96.8553 46.251 97.0144 50.2032C97.1076 52.5259 96.9413 54.7921 96.52 56.9363C95.9909 59.6294 95.055 62.1398 93.7408 64.394C89.6288 71.4456 81.9189 76.0018 70.8265 77.9347C70.7706 77.9437 70.7162 77.9481 70.6631 77.9481Z" fill="#8AC054"/>
<path d="M95.2797 44.4389C98.4688 39.4304 90.4552 36.374 90.4552 36.374C89.6367 44.0149 95.2797 44.4389 95.2797 44.4389Z" fill="#9ED36A"/>
</g>
<g style="mix-blend-mode:luminosity">
<path d="M33.4129 42.0195H29.4509L26.6777 58.3346L29.4509 74.6497H33.4129V42.0195Z" fill="#B4B4B4"/>
<path d="M29.4547 42.0195H25.4927V74.6493H29.4547V42.0195Z" fill="#E0E0E0"/>
<path d="M49.0573 42.0195H45.0953L42.3223 58.3346L45.0953 74.6497H49.0573V42.0195Z" fill="#B4B4B4"/>
<path d="M45.0953 42.0195H41.1333V74.6493H45.0953V42.0195Z" fill="#E0E0E0"/>
<path d="M64.6994 42.0195H60.7375L57.9644 58.3346L60.7375 74.6497H64.6994V42.0195Z" fill="#B4B4B4"/>
<path d="M60.7384 42.0195H56.7764V74.6493H60.7384V42.0195Z" fill="#E0E0E0"/>
<path d="M80.343 42.0195H76.3811L73.6079 58.3346L76.3811 74.6497H80.343V42.0195Z" fill="#B4B4B4"/>
<path d="M76.38 42.0195H72.418V74.6493H76.38V42.0195Z" fill="#E0E0E0"/>
<path d="M52.9187 19.1475L50.1455 33.8793L81.1361 31.0003L52.9187 19.1475Z" fill="#B4B4B4"/>
<path d="M24.6987 31.0003L52.9162 33.8793V19.1475L24.6987 31.0003Z" fill="#E0E0E0"/>
<path d="M82.49 81.7023V71.5645H52.9187L50.1455 81.7023H82.49Z" fill="#424242"/>
<path d="M52.9177 71.5625H23.3462V81.7006H52.9177V71.5625Z" fill="#707070"/>
<path d="M86.8889 85.6674V77.7349H52.9177L50.1445 81.7012L52.9177 85.6674H86.8889Z" fill="#707070"/>
<path d="M52.9199 77.7349H18.9487V85.6677H52.9199V77.7349Z" fill="#B4B4B4"/>
<path d="M82.49 34.9678H50.1455L52.9187 45.1056H82.49V34.9678Z" fill="#424242"/>
<path d="M52.9177 34.9692H23.3462V45.1074H52.9177V34.9692Z" fill="#707070"/>
<path d="M86.8889 38.9352V31.0024H52.9177L50.1445 34.9689L52.9177 38.9352H86.8889Z" fill="#707070"/>
<path d="M52.9199 30.9995H18.9487V38.9324H52.9199V30.9995Z" fill="#B4B4B4"/>
</g>
</g>
</g>
<defs>
<linearGradient id="paint0_linear_1777_275" x1="52.3892" y1="-40.5601" x2="52.3892" y2="115.377" gradientUnits="userSpaceOnUse">
<stop offset="0.242708" stop-color="#202C61"/>
<stop offset="0.779167" stop-color="#19505B"/>
<stop offset="1" stop-color="#1D6353"/>
</linearGradient>
<linearGradient id="paint1_linear_1777_275" x1="52.3892" y1="-40.5601" x2="52.3892" y2="88.0084" gradientUnits="userSpaceOnUse">
<stop offset="0.242708" stop-color="#202C61"/>
<stop offset="0.779167" stop-color="#19505B"/>
<stop offset="1" stop-color="#1D6353"/>
</linearGradient>
<linearGradient id="paint2_linear_1777_275" x1="52.3892" y1="-2.37109" x2="52.3892" y2="118.56" gradientUnits="userSpaceOnUse">
<stop offset="0.242708" stop-color="#202C61"/>
<stop offset="0.779167" stop-color="#19505B"/>
<stop offset="1" stop-color="#1D6353"/>
</linearGradient>
<linearGradient id="paint3_linear_1777_275" x1="51.7761" y1="4.94873" x2="51.7761" y2="118.56" gradientUnits="userSpaceOnUse">
<stop offset="0.242708" stop-color="#202C61"/>
<stop offset="0.779167" stop-color="#19505B"/>
<stop offset="1" stop-color="#1D6353"/>
</linearGradient>
<linearGradient id="paint4_linear_1777_275" x1="53.0471" y1="15.6001" x2="53.0471" y2="88.4001" gradientUnits="userSpaceOnUse">
<stop offset="0.242708" stop-color="#202C61"/>
<stop offset="0.779167" stop-color="#19505B"/>
<stop offset="1" stop-color="#1D6353"/>
</linearGradient>
<linearGradient id="paint5_linear_1777_275" x1="53.0398" y1="-1.04004" x2="53.0398" y2="88.4" gradientUnits="userSpaceOnUse">
<stop offset="0.242708" stop-color="#202C61"/>
<stop offset="0.779167" stop-color="#19505B"/>
<stop offset="1" stop-color="#1D6353"/>
</linearGradient>
<linearGradient id="paint6_linear_1777_275" x1="52.679" y1="20.0063" x2="52.679" y2="88.3998" gradientUnits="userSpaceOnUse">
<stop offset="0.242708" stop-color="#202C61"/>
<stop offset="0.779167" stop-color="#19505B"/>
<stop offset="1" stop-color="#1D6353"/>
</linearGradient>
<clipPath id="clip0_1777_275">
<rect width="104" height="104" rx="52" fill="white"/>
</clipPath>
<clipPath id="clip1_1777_275">
<rect x="-4.16016" y="15.6001" width="114.414" height="72.8" rx="2.66082" fill="white"/>
</clipPath>
</defs>
</svg>
