<svg width="12" height="8" viewBox="0 0 12 8" fill="none" xmlns="http://www.w3.org/2000/svg">
<path d="M5.24701 7.67365L0.451011 2.42112C-0.114989 1.80312 0.345011 0.83252 1.20401 0.83252H10.796C10.9883 0.832362 11.1765 0.885301 11.3381 0.984999C11.4998 1.0847 11.628 1.22693 11.7075 1.39465C11.7869 1.56238 11.8142 1.7485 11.7861 1.93072C11.758 2.11294 11.6757 2.28353 11.549 2.42208L6.75301 7.67269C6.65915 7.7756 6.5434 7.85808 6.41352 7.9146C6.28364 7.97111 6.14265 8.00035 6.00001 8.00035C5.85737 8.00035 5.71638 7.97111 5.5865 7.9146C5.45663 7.85808 5.34087 7.7756 5.24701 7.67269V7.67365Z" fill="#212529"/>
</svg>
