<svg xmlns="http://www.w3.org/2000/svg" width="20" height="15" viewBox="0 0 20 15" fill="none">
  <path d="M19.9484 2.13547C19.8582 1.70153 19.6569 1.30443 19.3757 0.976383C19.3164 0.904906 19.2544 0.840894 19.1873 0.776882C18.689 0.29845 17.9897 0 17.2258 0H2.77426C2.01032 0 1.31352 0.29845 0.812931 0.776882C0.745939 0.840894 0.683986 0.904906 0.624533 0.976383C0.343165 1.3044 0.141797 1.70153 0.0541407 2.13547C0.018125 2.30295 0 2.47603 0 2.651V12.3493C0 12.7213 0.0825783 13.079 0.229844 13.4019C0.366446 13.7102 0.567853 13.9892 0.812892 14.2231C0.875002 14.2823 0.936682 14.3367 1.00399 14.3909C1.48391 14.7706 2.1034 15 2.77426 15H17.2258C17.8969 15 18.5191 14.7706 18.9962 14.3885C19.0633 14.3367 19.1253 14.2823 19.1873 14.2231C19.4322 13.9892 19.6336 13.7102 19.773 13.4019V13.3995C19.9202 13.0766 20 12.7213 20 12.3493V2.651C20 2.47603 19.9822 2.30295 19.9484 2.13547ZM1.81676 1.73595C2.06461 1.49938 2.39747 1.35616 2.77426 1.35616H17.2258C17.6026 1.35616 17.9384 1.49938 18.1833 1.73595C18.2271 1.77809 18.2684 1.82504 18.3048 1.8717L10.7303 8.17943C10.5214 8.35437 10.2634 8.44078 10 8.44078C9.73932 8.44078 9.48143 8.35437 9.26974 8.17943L1.69813 1.86901C1.73164 1.82235 1.77293 1.77809 1.81676 1.73595ZM1.4193 12.3493V3.27239L6.90072 7.84152L1.42207 12.4058C1.4193 12.3885 1.4193 12.369 1.4193 12.3493ZM17.2258 13.6436H2.77426C2.52891 13.6436 2.29934 13.582 2.1034 13.4737L7.8838 8.66028L8.42345 9.10886C8.87506 9.48382 9.44018 9.67373 10 9.67373C10.5628 9.67373 11.1278 9.48382 11.5794 9.10886L12.1188 8.66028L17.8969 13.4737C17.7007 13.582 17.4711 13.6436 17.2258 13.6436ZM18.5807 12.3493C18.5807 12.369 18.5807 12.3885 18.5781 12.4058L13.0995 7.84417L18.5807 3.27482V12.3493Z" fill="url(#paint0_linear_1597_313)"/>
  <defs>
    <linearGradient id="paint0_linear_1597_313" x1="10" y1="0" x2="10" y2="15" gradientUnits="userSpaceOnUse">
      <stop offset="0.242708" stop-color="#202C61"/>
      <stop offset="0.779167" stop-color="#19505B"/>
      <stop offset="1" stop-color="#1D6353"/>
    </linearGradient>
  </defs>
</svg>