<svg width="35" height="35" viewBox="0 0 35 35" fill="none" xmlns="http://www.w3.org/2000/svg">
<path d="M10.2083 17.5002C10.2083 19.111 8.9025 20.4168 7.29167 20.4168C5.68084 20.4168 4.375 19.111 4.375 17.5002C4.375 15.8893 5.68084 14.5835 7.29167 14.5835C8.9025 14.5835 10.2083 15.8893 10.2083 17.5002Z" fill="#1C274C"/>
<path d="M30.625 17.5002C30.625 19.111 29.3192 20.4168 27.7084 20.4168C26.0975 20.4168 24.7917 19.111 24.7917 17.5002C24.7917 15.8893 26.0975 14.5835 27.7084 14.5835C29.3192 14.5835 30.625 15.8893 30.625 17.5002Z" fill="#1C274C"/>
<path opacity="0.5" d="M20.4166 17.5002C20.4166 19.111 19.1109 20.4168 17.5 20.4168C15.8891 20.4168 14.5833 19.111 14.5833 17.5002C14.5833 15.8893 15.8891 14.5835 17.5 14.5835C19.1109 14.5835 20.4166 15.8893 20.4166 17.5002Z" fill="#1C274C"/>
</svg>
