<svg width="36" height="39" viewBox="0 0 36 39" fill="none" xmlns="http://www.w3.org/2000/svg">
<path d="M34.8819 20.0408H31.5449V1.09178C31.5449 0.488756 31.0443 0 30.4268 0H8.51642C8.19354 0 7.88631 0.136352 7.674 0.373876L0.275673 8.65118C0.0978956 8.85013 0 9.10512 0 9.36909V37.9082C0 38.5112 0.500535 39 1.1181 39H30.4268C31.0443 39 31.5449 38.5112 31.5449 37.9082V34.7811H34.8819C35.4995 34.7811 36 34.2923 36 33.6893V21.1326C36 20.5296 35.4995 20.0408 34.8819 20.0408ZM33.7638 32.5975H9.76969V22.2244H33.7639L33.7638 32.5975ZM7.39832 4.00309V8.2773H3.57791L7.39832 4.00309ZM29.3087 36.8164H2.23619V10.4609H8.51642C9.13398 10.4609 9.63452 9.97212 9.63452 9.36909V2.18357H29.3087V20.0408H8.65159C8.03403 20.0408 7.53349 20.5296 7.53349 21.1326V33.6893C7.53349 34.2923 8.03403 34.7811 8.65159 34.7811H29.3087V36.8164Z" fill="#C70505"/>
<path d="M16.276 24.2754H13.3125V30.6097H14.6678V28.3248H16.2217C17.9654 28.3248 18.2906 26.878 18.2906 26.3045C18.2906 25.0606 17.5317 24.2754 16.276 24.2754ZM15.9235 27.2309H14.6678V25.3695H15.7429C16.5832 25.3695 16.9355 25.6252 16.9355 26.2428C16.9354 26.5251 16.9354 27.2309 15.9235 27.2309Z" fill="#C70505"/>
<path d="M22.2028 24.2754H19.3389V30.6097H22.1486C24.2898 30.6097 24.8409 28.6511 24.8409 27.2926C24.8409 26.0928 24.3892 24.2754 22.2028 24.2754ZM21.986 29.5158H20.6669V25.3695H21.9679C22.5461 25.3695 23.4587 25.5194 23.4587 27.3896C23.4587 28.4306 23.0882 29.5158 21.986 29.5158Z" fill="#C70505"/>
<path d="M25.8623 24.2754V30.6097H27.2176V27.9454H30.0724V26.8251H27.2176V25.3959H30.4791V24.2754H25.8623Z" fill="#C70505"/>
<path d="M13.241 18.7609H25.1371C25.4393 18.7609 25.7161 18.5963 25.8546 18.3342C25.9931 18.072 25.9704 17.7564 25.7956 17.5159L19.8475 9.33495C19.6961 9.12667 19.4507 9.00293 19.1891 9.00293C18.9275 9.00293 18.6821 9.12679 18.5307 9.33495L12.5826 17.5159C12.4078 17.7564 12.385 18.0721 12.5236 18.3342C12.6623 18.5962 12.9388 18.7609 13.241 18.7609ZM19.189 11.1535L23.5734 17.1839H14.8044L19.189 11.1535Z" fill="#C70505"/>
</svg>
