<svg xmlns="http://www.w3.org/2000/svg" width="23" height="23" viewBox="0 0 23 23" fill="none">
  <path d="M15.2898 4.27472L18.4331 7.41803M12.5117 21.4996H21.4023M1.39844 21.5L1.45117 21.1309C1.63777 19.8247 1.73108 19.1715 1.94331 18.5618C2.13164 18.0208 2.3889 17.5062 2.70876 17.0309C3.06922 16.4952 3.53573 16.0287 4.46875 15.0958L17.4134 2.151C18.2815 1.28301 19.6888 1.283 20.5568 2.151C21.4248 3.019 21.4248 4.42631 20.5568 5.29431L7.37454 18.4765C6.52809 19.323 6.10488 19.7462 5.62282 20.0828C5.19493 20.3816 4.73345 20.6291 4.24786 20.8202C3.70079 21.0355 3.11405 21.1538 1.94069 21.3906L1.39844 21.5Z" stroke="white" stroke-width="2.22266" stroke-linecap="round" stroke-linejoin="round"/>
</svg>