<svg xmlns="http://www.w3.org/2000/svg" width="35" height="35" viewBox="0 0 35 35" fill="none">
  <path d="M1.91667 0H28.75L33.9384 5.18842C34.2979 5.54778 34.4999 6.03521 34.5 6.5435V32.5833C34.5 33.0917 34.2981 33.5792 33.9386 33.9386C33.5792 34.2981 33.0917 34.5 32.5833 34.5H1.91667C1.40834 34.5 0.920823 34.2981 0.561379 33.9386C0.201934 33.5792 0 33.0917 0 32.5833V1.91667C0 1.40834 0.201934 0.920823 0.561379 0.561379C0.920823 0.201934 1.40834 0 1.91667 0ZM7.66667 1.91667V11.5H24.9167V1.91667H7.66667ZM5.75 17.25V30.6667H28.75V17.25H5.75ZM19.1667 3.83333H23V9.58333H19.1667V3.83333Z" fill="url(#paint0_linear_1787_85)"/>
  <defs>
    <linearGradient id="paint0_linear_1787_85" x1="17.25" y1="0" x2="17.25" y2="34.5" gradientUnits="userSpaceOnUse">
      <stop offset="0.242708" stop-color="#202C61"/>
      <stop offset="0.779167" stop-color="#19505B"/>
      <stop offset="1" stop-color="#1D6353"/>
    </linearGradient>
  </defs>
</svg>