<svg xmlns="http://www.w3.org/2000/svg" width="35" height="39" viewBox="0 0 35 39" fill="none">
  <path fill-rule="evenodd" clip-rule="evenodd" d="M25.6706 1.53729C26.0341 1.10419 26.4794 0.746947 26.981 0.485965C27.4826 0.224983 28.0307 0.0653785 28.5939 0.0162679C29.1572 -0.0328428 29.7247 0.029503 30.2639 0.199744C30.8031 0.369985 31.3034 0.644785 31.7364 1.00845L33.4631 2.45724C34.3375 3.19094 34.8846 4.24185 34.9842 5.37888C35.0839 6.5159 34.7278 7.64595 33.9944 8.52053L19.964 25.2419C18.947 26.4545 17.6943 27.4478 16.2818 28.1616L9.95528 31.3569C9.63309 31.5195 9.27028 31.584 8.91178 31.5425C8.55328 31.5009 8.21483 31.3551 7.93836 31.1232C7.66188 30.8912 7.45952 30.5832 7.35632 30.2374C7.25313 29.8916 7.25363 29.5231 7.35778 29.1775L9.40676 22.3911C9.86381 20.8766 10.6237 19.4707 11.6402 18.2587L25.6706 1.53729ZM29.3652 3.8347C29.3034 3.78238 29.2319 3.74277 29.1547 3.71816C29.0776 3.69354 28.9964 3.6844 28.9157 3.69125C28.835 3.69811 28.7565 3.72083 28.6846 3.75811C28.6128 3.79539 28.549 3.8465 28.4969 3.90849L27.1932 5.46552L29.8547 7.71373L31.1682 6.14933C31.2728 6.02437 31.3235 5.86298 31.3092 5.70063C31.2949 5.53828 31.2168 5.38825 31.0919 5.2835L29.3627 3.83224L29.3652 3.8347ZM27.4835 10.54L24.822 8.29177L14.4665 20.6299C13.771 21.4596 13.2513 22.422 12.939 23.4586L12.1346 26.1225L14.619 24.868C15.5852 24.3797 16.4421 23.7002 17.1378 22.8707L27.4835 10.54Z" fill="url(#paint0_linear_1787_63)"/>
  <path d="M5.53444 7.67449C5.04517 7.67449 4.57593 7.86885 4.22996 8.21482C3.88399 8.56079 3.68963 9.03003 3.68963 9.5193V32.8869C3.68963 33.9053 4.5161 34.7318 5.53444 34.7318H28.9021C29.3914 34.7318 29.8606 34.5374 30.2066 34.1914C30.5525 33.8455 30.7469 33.3762 30.7469 32.8869V21.2031C30.7469 20.7138 30.9413 20.2446 31.2872 19.8986C31.6332 19.5527 32.1024 19.3583 32.5917 19.3583C33.081 19.3583 33.5502 19.5527 33.8962 19.8986C34.2422 20.2446 34.4365 20.7138 34.4365 21.2031V32.8869C34.4365 34.3548 33.8534 35.7625 32.8155 36.8004C31.7776 37.8383 30.3699 38.4214 28.9021 38.4214H5.53444C4.06662 38.4214 2.65891 37.8383 1.621 36.8004C0.583091 35.7625 0 34.3548 0 32.8869V9.5193C0 8.05148 0.583091 6.64377 1.621 5.60586C2.65891 4.56795 4.06662 3.98486 5.53444 3.98486H12.2988C12.788 3.98486 13.2573 4.17923 13.6032 4.5252C13.9492 4.87117 14.1436 5.3404 14.1436 5.82968C14.1436 6.31895 13.9492 6.78819 13.6032 7.13416C13.2573 7.48013 12.788 7.67449 12.2988 7.67449H5.53444Z" fill="url(#paint1_linear_1787_63)"/>
  <defs>
    <linearGradient id="paint0_linear_1787_63" x1="21.14" y1="0" x2="21.14" y2="31.5547" gradientUnits="userSpaceOnUse">
      <stop offset="0.242708" stop-color="#202C61"/>
      <stop offset="0.779167" stop-color="#19505B"/>
      <stop offset="1" stop-color="#1D6353"/>
    </linearGradient>
    <linearGradient id="paint1_linear_1787_63" x1="17.2183" y1="3.98486" x2="17.2183" y2="38.4214" gradientUnits="userSpaceOnUse">
      <stop offset="0.242708" stop-color="#202C61"/>
      <stop offset="0.779167" stop-color="#19505B"/>
      <stop offset="1" stop-color="#1D6353"/>
    </linearGradient>
  </defs>
</svg>