<svg width="20" height="13" viewBox="0 0 15 15" fill="none" xmlns="http://www.w3.org/2000/svg">
<path d="M15 6.90307V8.45455C15 11.1115 15 12.4401 14.1213 13.2655C13.2427 14.0909 11.8285 14.0909 9 14.0909H6C3.17159 14.0909 1.75736 14.0909 0.878678 13.2655C0.147938 12.579 0.0249075 11.5446 0.00419247 9.68757H6.52028L4.82544 10.8454C4.5742 11.017 4.51865 11.3475 4.70137 11.5836C4.88409 11.8196 5.23588 11.8717 5.48713 11.7001L8.5809 9.58647C8.7264 9.48706 8.8125 9.32818 8.8125 9.15916C8.8125 8.99007 8.7264 8.8312 8.5809 8.73178L5.48713 6.61815C5.23588 6.44652 4.88409 6.49866 4.70137 6.73468C4.51865 6.9707 4.5742 7.3012 4.82544 7.47283L6.52028 8.63075H7.51019e-06L0 8.45455L2.25306e-05 3.48732C2.25306e-05 2.86556 2.25361e-05 2.55464 0.052035 2.29568C0.281003 1.15567 1.23025 0.263951 2.44381 0.0488602C2.71948 5.24927e-09 3.05043 0 3.71233 0C4.00233 0 4.14734 0 4.28669 0.012245C4.8875 0.0650225 5.45741 0.286778 5.92197 0.648541C6.0297 0.732453 6.13222 0.828778 6.33735 1.02141L6.75 1.40909C7.36185 1.98384 7.66778 2.27122 8.03407 2.46269C8.23538 2.56786 8.44882 2.65092 8.6703 2.71023C9.07343 2.81818 9.5061 2.81818 10.3713 2.81818H10.6516C12.6259 2.81818 13.613 2.81818 14.2547 3.3603C14.3137 3.41017 14.3699 3.46294 14.423 3.51838C15 4.12113 15 5.04845 15 6.90307Z" fill="#FF961A"/>
</svg>
