<svg width="25" height="25" viewBox="0 0 25 25" fill="none" xmlns="http://www.w3.org/2000/svg">
<path d="M2.08331 5.20833C2.08331 4.22624 2.08331 3.7352 2.38841 3.43009C2.69351 3.125 3.18455 3.125 4.16665 3.125H20.8333C21.8154 3.125 22.3064 3.125 22.6115 3.43009C22.9166 3.7352 22.9166 4.22624 22.9166 5.20833C22.9166 6.19043 22.9166 6.68147 22.6115 6.98657C22.3064 7.29167 21.8154 7.29167 20.8333 7.29167H4.16665C3.18455 7.29167 2.69351 7.29167 2.38841 6.98657C2.08331 6.68147 2.08331 6.19043 2.08331 5.20833Z" fill="#2C3E7B"/>
<path d="M20.9051 8.85407C21.0522 8.85413 21.2032 8.8542 21.3541 8.85211V13.5415C21.3541 17.4699 21.3541 19.4341 20.1337 20.6545C18.9406 21.8476 17.0366 21.8742 13.2812 21.8749V14.5357L15.0443 16.4947C15.3329 16.8154 15.8269 16.8414 16.1476 16.5528C16.4683 16.2641 16.4944 15.7702 16.2057 15.4495L13.0807 11.9773C12.9325 11.8126 12.7214 11.7186 12.5 11.7186C12.2785 11.7186 12.0675 11.8126 11.9193 11.9773L8.79429 15.4495C8.50565 15.7702 8.53165 16.2641 8.85235 16.5528C9.17307 16.8414 9.66704 16.8154 9.95569 16.4947L11.7187 14.5357V21.8749C7.96337 21.8742 6.05932 21.8476 4.8662 20.6545C3.64581 19.4341 3.64581 17.4699 3.64581 13.5415V8.85211C3.79673 8.8542 3.94789 8.85413 4.09492 8.85407H20.9051Z" fill="#2C3E7B"/>
</svg>
