<svg class="search-icon"
  xmlns="http://www.w3.org/2000/svg" width="25" height="26" viewBox="0 0 25 26" fill="none">
  <path d="M20.3135 10.6544C20.3135 12.8956 19.5859 14.9659 18.3603 16.6456L24.5422 22.8322C25.1526 23.4425 25.1526 24.4337 24.5422 25.0441C23.9318 25.6544 22.9406 25.6544 22.3302 25.0441L16.1483 18.8575C14.4685 20.088 12.3981 20.8107 10.1567 20.8107C4.54612 20.8107 0 16.2648 0 10.6544C0 5.04407 4.54612 0.498169 10.1567 0.498169C15.7674 0.498169 20.3135 5.04407 20.3135 10.6544ZM10.1567 17.6857C11.0801 17.6857 11.9945 17.5038 12.8476 17.1504C13.7007 16.7971 14.4759 16.2792 15.1288 15.6263C15.7818 14.9734 16.2997 14.1982 16.6531 13.3452C17.0065 12.4921 17.1883 11.5778 17.1883 10.6544C17.1883 9.73106 17.0065 8.81675 16.6531 7.96368C16.2997 7.11061 15.7818 6.33549 15.1288 5.68257C14.4759 5.02966 13.7007 4.51174 12.8476 4.15839C11.9945 3.80504 11.0801 3.62317 10.1567 3.62317C9.23334 3.62317 8.31898 3.80504 7.46587 4.15839C6.61276 4.51174 5.8376 5.02966 5.18466 5.68257C4.53171 6.33549 4.01377 7.11061 3.6604 7.96368C3.30703 8.81675 3.12515 9.73106 3.12515 10.6544C3.12515 11.5778 3.30703 12.4921 3.6604 13.3452C4.01377 14.1982 4.53171 14.9734 5.18466 15.6263C5.8376 16.2792 6.61276 16.7971 7.46587 17.1504C8.31898 17.5038 9.23334 17.6857 10.1567 17.6857Z" fill="url(#paint0_linear_24_146)" />
  <defs>
    <linearGradient id="paint0_linear_24_146" x1="12.5" y1="0.498169" x2="12.5" y2="25.5018" gradientUnits="userSpaceOnUse">
      <stop offset="0.242708" stop-color="#202C61" />
      <stop offset="0.779167" stop-color="#19505B" />
      <stop offset="1" stop-color="#1D6353" />
    </linearGradient>
  </defs>
</svg>