<svg xmlns="http://www.w3.org/2000/svg" width="19" height="19" viewBox="0 0 19 19" fill="none">
  <path d="M11.7016 13.2214L12.9581 11.9648C13.1515 11.7691 13.3818 11.6136 13.6356 11.5076C13.8894 11.4016 14.1617 11.3471 14.4367 11.3471C14.7119 11.3471 14.9842 11.4016 15.238 11.5076C15.4918 11.6136 15.722 11.7691 15.9153 11.9648L17.3892 13.4387C17.5849 13.632 17.7403 13.8621 17.8463 14.116C17.9523 14.3697 18.0069 14.6422 18.0069 14.9172C18.0069 15.1924 17.9523 15.4647 17.8463 15.7186C17.7403 15.9724 17.5849 16.2024 17.3892 16.3957L16.7184 17.076C16.2562 17.5427 15.6585 17.8517 15.0103 17.9585C14.3622 18.0654 13.6969 17.9649 13.1093 17.6713C8.05306 15.0685 3.93469 10.9534 1.32777 5.89927C1.03387 5.31106 0.934083 4.6448 1.04273 3.99631C1.15138 3.3478 1.46288 2.75039 1.93245 2.2901L2.60322 1.60987C2.99619 1.21928 3.52776 1 4.08182 1C4.63588 1 5.16745 1.21928 5.56042 1.60987L7.04376 3.09325C7.43435 3.48623 7.6536 4.01773 7.6536 4.57181C7.6536 5.12587 7.43435 5.65737 7.04376 6.05035L5.78716 7.307C6.61802 8.43085 7.53065 9.49176 8.51761 10.4813C9.49887 11.4643 10.5538 12.3709 11.6732 13.1931L11.7016 13.2214Z" stroke="url(#paint0_linear_1713_287)" stroke-width="1.5" stroke-linecap="round" stroke-linejoin="round"/>
  <defs>
    <linearGradient id="paint0_linear_1713_287" x1="9.50346" y1="1" x2="9.50346" y2="18.0001" gradientUnits="userSpaceOnUse">
      <stop offset="0.242708" stop-color="#202C61"/>
      <stop offset="0.779167" stop-color="#19505B"/>
      <stop offset="1" stop-color="#1D6353"/>
    </linearGradient>
  </defs>
</svg>