<svg width="18" height="15" viewBox="0 0 18 21" fill="none" xmlns="http://www.w3.org/2000/svg">
<g clip-path="url(#clip0_270_30345)">
<path d="M5.43214 0.711161L5.14286 1.28571H1.28571C0.574554 1.28571 0 1.86027 0 2.57143C0 3.28259 0.574554 3.85714 1.28571 3.85714H16.7143C17.4254 3.85714 18 3.28259 18 2.57143C18 1.86027 17.4254 1.28571 16.7143 1.28571H12.8571L12.5679 0.711161C12.3509 0.273214 11.9049 0 11.4188 0H6.58125C6.09509 0 5.64911 0.273214 5.43214 0.711161ZM16.7143 5.14286H1.28571L2.1375 18.7634C2.20179 19.7799 3.04554 20.5714 4.06205 20.5714H13.9379C14.9545 20.5714 15.7982 19.7799 15.8625 18.7634L16.7143 5.14286Z" fill="#C70505"/>
</g>
<defs>
<clipPath id="clip0_270_30345">
<rect width="18" height="20.5714" fill="white"/>
</clipPath>
</defs>
</svg>
