<svg width="25" height="25" viewBox="0 0 25 25" fill="none" xmlns="http://www.w3.org/2000/svg">
<g clip-path="url(#clip0_270_30483)">
<path fill-rule="evenodd" clip-rule="evenodd" d="M14.9376 0C16.364 0 17.7127 0.649468 18.6022 1.76459L22.4146 6.54439C23.0768 7.37468 23.4375 8.40525 23.4375 9.4673V20.3125C23.4375 22.9013 21.3388 25 18.75 25H6.25C3.66117 25 1.5625 22.9013 1.5625 20.3125V4.6875C1.5625 2.09867 3.66117 0 6.25 0H14.9376ZM16.7979 8.59375H13.6729C13.2415 8.59375 12.8917 8.94353 12.8917 9.375V12.5C12.8917 12.9315 13.2415 13.2812 13.6729 13.2812C14.1044 13.2812 14.4542 12.9315 14.4542 12.5L14.4546 11.1987C15.1827 11.7974 15.625 12.7083 15.625 13.7004C15.625 15.4745 14.2223 16.9062 12.5 16.9062C10.7777 16.9062 9.375 15.4745 9.375 13.7004C9.375 12.2651 10.3021 11.0191 11.6201 10.6232C12.0334 10.4991 12.2678 10.0635 12.1437 9.65028C12.0195 9.23704 11.5839 9.00266 11.1707 9.12677C9.19212 9.72101 7.8125 11.5751 7.8125 13.7004C7.8125 16.3304 9.90754 18.4688 12.5 18.4688C15.0925 18.4688 17.1875 16.3304 17.1875 13.7004C17.1875 12.3224 16.6074 11.0454 15.6369 10.1566L16.7979 10.1562C17.2294 10.1562 17.5792 9.80647 17.5792 9.375C17.5792 8.94353 17.2294 8.59375 16.7979 8.59375Z" fill="#1956A8"/>
</g>
<defs>
<clipPath id="clip0_270_30483">
<rect width="25" height="25" fill="white"/>
</clipPath>
</defs>
</svg>
