<svg width="25" height="16" viewBox="0 0 25 16" fill="none" xmlns="http://www.w3.org/2000/svg">
<path d="M12.5 5.34981C13.6962 5.34981 14.6709 6.32552 14.6709 7.52074C14.6709 8.71596 13.6952 9.66046 12.5 9.66046C11.3048 9.66046 10.3603 8.71596 10.3603 7.52074C10.3603 6.32552 11.3048 5.34981 12.5 5.34981ZM12.5 0C19.6119 0 24.7402 6.67089 24.7402 6.67089C25.0866 7.11193 25.0866 7.89834 24.7402 8.33837C24.7402 8.33837 19.6109 15.0093 12.5 15.0093C5.38908 15.0093 0.259787 8.33837 0.259787 8.33837C-0.0865958 7.89733 -0.0865958 7.11092 0.259787 6.67089C0.259787 6.67089 5.38908 0 12.5 0ZM12.5 12.9018C15.4584 12.9018 17.881 10.4791 17.881 7.52074C17.881 4.56239 15.4584 2.13972 12.5 2.13972C9.54165 2.13972 7.11898 4.56239 7.11898 7.52074C7.11898 10.4791 9.54165 12.9018 12.5 12.9018Z" fill="#1D6353"/>
</svg>
