<svg width="20" height="13" viewBox="0 0 20 13" fill="none" xmlns="http://www.w3.org/2000/svg">
<path d="M10 4.27984C10.957 4.27984 11.7367 5.06042 11.7367 6.01659C11.7367 6.97277 10.9562 7.72837 10 7.72837C9.04382 7.72837 8.28822 6.97277 8.28822 6.01659C8.28822 5.06042 9.04382 4.27984 10 4.27984ZM10 0C15.6895 0 19.7922 5.33672 19.7922 5.33672C20.0693 5.68954 20.0693 6.31867 19.7922 6.67069C19.7922 6.67069 15.6887 12.0074 10 12.0074C4.31126 12.0074 0.20783 6.67069 0.20783 6.67069C-0.0692766 6.31787 -0.0692766 5.68874 0.20783 5.33672C0.20783 5.33672 4.31126 0 10 0ZM10 10.3214C12.3667 10.3214 14.3048 8.38328 14.3048 6.01659C14.3048 3.64991 12.3667 1.71178 10 1.71178C7.63332 1.71178 5.69518 3.64991 5.69518 6.01659C5.69518 8.38328 7.63332 10.3214 10 10.3214Z" fill="#559AF7"/>
</svg>
