<svg width="50" height="50" viewBox="0 0 50 50" fill="none" xmlns="http://www.w3.org/2000/svg">
<path d="M38.8889 11.1111L25 25M38.8889 11.1111V18.9236M38.8889 11.1111H31.0764M37.1528 25.868V33.3333C37.1528 35.2779 37.1528 36.2503 36.7743 36.993C36.4415 37.6463 35.9102 38.1776 35.2569 38.5104C34.5142 38.8889 33.5418 38.8889 31.5972 38.8889H16.6666C14.722 38.8889 13.7497 38.8889 13.007 38.5104C12.3536 38.1776 11.8224 37.6463 11.4895 36.993C11.1111 36.2503 11.1111 35.2779 11.1111 33.3333V18.4028C11.1111 16.4581 11.1111 15.4858 11.4895 14.7431C11.8224 14.0897 12.3536 13.5585 13.007 13.2256C13.7497 12.8472 14.722 12.8472 16.6666 12.8472H24.1319" stroke="black" stroke-opacity="0.64" stroke-width="4.44444" stroke-linecap="round" stroke-linejoin="round"/>
</svg>
