<svg width="25" height="25" viewBox="0 0 25 25" fill="none" xmlns="http://www.w3.org/2000/svg">
<path fill-rule="evenodd" clip-rule="evenodd" d="M7.55214 2.48723C8.90496 2.18659 10.5461 2.08325 12.5 2.08325C14.4538 2.08325 16.095 2.18659 17.4478 2.48723C18.8125 2.79051 19.9466 3.30825 20.8191 4.18073C21.6916 5.05321 22.2094 6.18744 22.5127 7.55207C22.8133 8.9049 22.9166 10.5461 22.9166 12.4999C22.9166 14.4538 22.8133 16.0949 22.5127 17.4477C22.2094 18.8124 21.6916 19.9466 20.8191 20.8191C19.9466 21.6916 18.8125 22.2093 17.4478 22.5126C16.095 22.8133 14.4538 22.9166 12.5 22.9166C10.5461 22.9166 8.90496 22.8133 7.55214 22.5126C6.1875 22.2093 5.05327 21.6916 4.18079 20.8191C3.30831 19.9466 2.79057 18.8124 2.48729 17.4477C2.18665 16.0949 2.08331 14.4538 2.08331 12.4999C2.08331 10.5461 2.18665 8.9049 2.48729 7.55207C2.79057 6.18744 3.30831 5.05321 4.18079 4.18073C5.05327 3.30825 6.1875 2.79051 7.55214 2.48723ZM16.6666 14.5833C16.6666 15.1586 16.2003 15.6249 15.625 15.6249C15.0497 15.6249 14.5833 15.1586 14.5833 14.5833V11.8897L10.1116 16.3615C9.70475 16.7683 9.04521 16.7683 8.63841 16.3615C8.23161 15.9547 8.23161 15.2951 8.63841 14.8884L13.1102 10.4166H10.4166C9.84135 10.4166 9.37498 9.95021 9.37498 9.37492C9.37498 8.79963 9.84135 8.33325 10.4166 8.33325H15.283C16.0473 8.33325 16.6666 8.95293 16.6666 9.71697V14.5833Z" fill="#0C6238"/>
</svg>
