<svg width="25" height="22" viewBox="0 0 25 22" fill="none" xmlns="http://www.w3.org/2000/svg">
<path d="M1.5625 0H23.4375C24.3018 0 25 0.698242 25 1.5625V3.125C25 3.98926 24.3018 4.6875 23.4375 4.6875H1.5625C0.698242 4.6875 0 3.98926 0 3.125V1.5625C0 0.698242 0.698242 0 1.5625 0ZM1.5625 6.25H23.4375V18.75C23.4375 20.4736 22.0361 21.875 20.3125 21.875H4.6875C2.96387 21.875 1.5625 20.4736 1.5625 18.75V6.25ZM7.8125 10.1562C7.8125 10.5859 8.16406 10.9375 8.59375 10.9375H16.4062C16.8359 10.9375 17.1875 10.5859 17.1875 10.1562C17.1875 9.72656 16.8359 9.375 16.4062 9.375H8.59375C8.16406 9.375 7.8125 9.72656 7.8125 10.1562Z" fill="url(#paint0_linear_318_30889)"/>
<defs>
<linearGradient id="paint0_linear_318_30889" x1="12.5" y1="0" x2="12.5" y2="21.875" gradientUnits="userSpaceOnUse">
<stop offset="0.242708" stop-color="#202C61"/>
<stop offset="0.779167" stop-color="#19505B"/>
<stop offset="1" stop-color="#1D6353"/>
</linearGradient>
</defs>
</svg>
