<svg width="25" height="25" viewBox="0 0 22 23" fill="none" xmlns="http://www.w3.org/2000/svg">
<path d="M21.539 11.3617C21.539 12.1124 20.9889 12.7005 20.3654 12.7005H19.1917L19.2174 19.3818C19.2174 19.4944 19.2101 19.607 19.1991 19.7196V20.391C19.1991 21.3127 18.5426 22.0593 17.732 22.0593H17.1452C17.1049 22.0593 17.0645 22.0593 17.0242 22.0551C16.9728 22.0593 16.9215 22.0593 16.8701 22.0593H15.6782H14.7979C13.9874 22.0593 13.3309 21.3127 13.3309 20.391V19.3901V16.7209C13.3309 15.9827 12.8064 15.3863 12.1573 15.3863H9.80999C9.16082 15.3863 8.63635 15.9827 8.63635 16.7209V19.3901V20.391C8.63635 21.3127 7.97985 22.0593 7.16931 22.0593H6.28908H5.11911C5.0641 22.0593 5.00908 22.0551 4.95407 22.0509C4.91006 22.0551 4.86605 22.0593 4.82203 22.0593H4.23522C3.42467 22.0593 2.76817 21.3127 2.76817 20.391V15.72C2.76817 15.6824 2.76817 15.6407 2.77184 15.6032V12.7005H1.59453C0.934364 12.7005 0.420898 12.1166 0.420898 11.3617C0.420898 10.9863 0.530927 10.6527 0.78766 10.3607L10.1914 1.03946C10.4482 0.747517 10.7416 0.705811 10.9983 0.705811C11.255 0.705811 11.5484 0.789223 11.7685 0.997753L21.1356 10.3607C21.429 10.6527 21.5757 10.9863 21.539 11.3617Z" fill="url(#paint0_linear_318_30609)"/>
<defs>
<linearGradient id="paint0_linear_318_30609" x1="10.9827" y1="0.705811" x2="10.9827" y2="22.0593" gradientUnits="userSpaceOnUse">
<stop offset="0.242708" stop-color="#202C61"/>
<stop offset="0.779167" stop-color="#19505B"/>
<stop offset="1" stop-color="#1D6353"/>
</linearGradient>
</defs>
</svg>
