<svg width="30" height="30" viewBox="0 0 35 35" fill="none" xmlns="http://www.w3.org/2000/svg">
<path d="M10.9375 17.5C10.9375 17.2099 11.0527 16.9317 11.2579 16.7266C11.463 16.5215 11.7412 16.4062 12.0312 16.4062H21.875V9.29688C21.875 7.10938 19.5651 5.46875 17.5 5.46875H7.10938C6.09443 5.46984 5.12136 5.8735 4.40368 6.59118C3.686 7.30886 3.28234 8.28193 3.28125 9.29688V25.7031C3.28234 26.7181 3.686 27.6911 4.40368 28.4088C5.12136 29.1265 6.09443 29.5302 7.10938 29.5312H18.0469C19.0618 29.5302 20.0349 29.1265 20.7526 28.4088C21.4702 27.6911 21.8739 26.7181 21.875 25.7031V18.5938H12.0312C11.7412 18.5938 11.463 18.4785 11.2579 18.2734C11.0527 18.0683 10.9375 17.7901 10.9375 17.5Z" fill="url(#paint0_linear_423_44)"/>
<path d="M31.3981 16.7268L25.9294 11.2581C25.7226 11.0616 25.4473 10.9537 25.162 10.9574C24.8768 10.961 24.6043 11.0759 24.4027 11.2776C24.201 11.4793 24.086 11.7518 24.0824 12.037C24.0787 12.3222 24.1866 12.5976 24.3831 12.8044L27.9843 16.4062H21.875V18.5937H27.9843L24.3831 22.1956C24.2773 22.2961 24.1926 22.4169 24.1342 22.5506C24.0757 22.6844 24.0447 22.8285 24.0428 22.9745C24.0409 23.1205 24.0683 23.2654 24.1233 23.4006C24.1783 23.5358 24.2598 23.6587 24.3631 23.7619C24.4663 23.8652 24.5891 23.9467 24.7244 24.0017C24.8596 24.0567 25.0045 24.0841 25.1505 24.0822C25.2964 24.0803 25.4406 24.0492 25.5743 23.9908C25.7081 23.9323 25.8288 23.8477 25.9294 23.7419L31.3981 18.2731C31.6031 18.068 31.7182 17.7899 31.7182 17.5C31.7182 17.21 31.6031 16.9319 31.3981 16.7268Z" fill="url(#paint1_linear_423_44)"/>
<defs>
<linearGradient id="paint0_linear_423_44" x1="12.5781" y1="5.46875" x2="12.5781" y2="29.5312" gradientUnits="userSpaceOnUse">
<stop offset="0.242708" stop-color="#202C61"/>
<stop offset="0.779167" stop-color="#19505B"/>
<stop offset="1" stop-color="#1D6353"/>
</linearGradient>
<linearGradient id="paint1_linear_423_44" x1="26.7966" y1="10.9573" x2="26.7966" y2="24.0823" gradientUnits="userSpaceOnUse">
<stop offset="0.242708" stop-color="#202C61"/>
<stop offset="0.779167" stop-color="#19505B"/>
<stop offset="1" stop-color="#1D6353"/>
</linearGradient>
</defs>
</svg>
