<svg width="25" height="22" viewBox="0 0 25 22" fill="none" xmlns="http://www.w3.org/2000/svg">
<path d="M4.6875 3.125C4.6875 1.40137 6.08887 0 7.8125 0H21.875C23.5986 0 25 1.40137 25 3.125V18.75C25 20.4736 23.5986 21.875 21.875 21.875H3.90625C1.74805 21.875 0 20.127 0 17.9688V4.6875C0 3.82324 0.698242 3.125 1.5625 3.125C2.42676 3.125 3.125 3.82324 3.125 4.6875V17.9688C3.125 18.3984 3.47656 18.75 3.90625 18.75C4.33594 18.75 4.6875 18.3984 4.6875 17.9688V3.125ZM7.8125 4.29688V8.20312C7.8125 8.85254 8.33496 9.375 8.98438 9.375H14.4531C15.1025 9.375 15.625 8.85254 15.625 8.20312V4.29688C15.625 3.64746 15.1025 3.125 14.4531 3.125H8.98438C8.33496 3.125 7.8125 3.64746 7.8125 4.29688ZM17.9688 3.90625C17.9688 4.33594 18.3203 4.6875 18.75 4.6875H21.0938C21.5234 4.6875 21.875 4.33594 21.875 3.90625C21.875 3.47656 21.5234 3.125 21.0938 3.125H18.75C18.3203 3.125 17.9688 3.47656 17.9688 3.90625ZM17.9688 8.59375C17.9688 9.02344 18.3203 9.375 18.75 9.375H21.0938C21.5234 9.375 21.875 9.02344 21.875 8.59375C21.875 8.16406 21.5234 7.8125 21.0938 7.8125H18.75C18.3203 7.8125 17.9688 8.16406 17.9688 8.59375ZM7.8125 13.2812C7.8125 13.7109 8.16406 14.0625 8.59375 14.0625H21.0938C21.5234 14.0625 21.875 13.7109 21.875 13.2812C21.875 12.8516 21.5234 12.5 21.0938 12.5H8.59375C8.16406 12.5 7.8125 12.8516 7.8125 13.2812ZM7.8125 17.9688C7.8125 18.3984 8.16406 18.75 8.59375 18.75H21.0938C21.5234 18.75 21.875 18.3984 21.875 17.9688C21.875 17.5391 21.5234 17.1875 21.0938 17.1875H8.59375C8.16406 17.1875 7.8125 17.5391 7.8125 17.9688Z" fill="url(#paint0_linear_318_30884)"/>
<defs>
<linearGradient id="paint0_linear_318_30884" x1="12.5" y1="0" x2="12.5" y2="21.875" gradientUnits="userSpaceOnUse">
<stop offset="0.242708" stop-color="#202C61"/>
<stop offset="0.779167" stop-color="#19505B"/>
<stop offset="1" stop-color="#1D6353"/>
</linearGradient>
</defs>
</svg>
