<svg width="25" height="23" viewBox="0 0 25 23" fill="none" xmlns="http://www.w3.org/2000/svg">
<path d="M2.77778 1.38889C2.77778 0.62066 2.15712 0 1.38889 0C0.62066 0 0 0.62066 0 1.38889V5.55556V16.6667C0 18.1988 1.24566 19.4444 2.77778 19.4444H11.1111V16.6667H2.77778V6.94444H11.1111V4.16667H2.77778V1.38889ZM12.5 8.33333C12.5 9.10156 13.1207 9.72222 13.8889 9.72222H23.6111C24.3793 9.72222 25 9.10156 25 8.33333V2.77778C25 2.00955 24.3793 1.38889 23.6111 1.38889H19.3273C18.9583 1.38889 18.6068 1.24132 18.3464 0.980903L17.7691 0.407986C17.5087 0.147569 17.1571 0 16.7882 0H13.8889C13.1207 0 12.5 0.62066 12.5 1.38889V8.33333ZM12.5 20.8333C12.5 21.6016 13.1207 22.2222 13.8889 22.2222H23.6111C24.3793 22.2222 25 21.6016 25 20.8333V15.2778C25 14.5095 24.3793 13.8889 23.6111 13.8889H19.3273C18.9583 13.8889 18.6068 13.7413 18.3464 13.4809L17.7691 12.9036C17.5087 12.6432 17.1571 12.4957 16.7882 12.4957H13.8889C13.1207 12.4957 12.5 13.1163 12.5 13.8845V20.8333Z" fill="url(#paint0_linear_318_30892)"/>
<defs>
<linearGradient id="paint0_linear_318_30892" x1="12.5" y1="0" x2="12.5" y2="22.2222" gradientUnits="userSpaceOnUse">
<stop offset="0.242708" stop-color="#202C61"/>
<stop offset="0.779167" stop-color="#19505B"/>
<stop offset="1" stop-color="#1D6353"/>
</linearGradient>
</defs>
</svg>
