<svg xmlns="http://www.w3.org/2000/svg" width="50" height="50" viewBox="0 0 50 50" fill="none">
  <g clip-path="url(#clip0_219_58)">
    <path d="M13.8889 14.5833V18.75H6.25L6.25021 30.5555L11.6946 36.1112H38.3055L43.7497 30.5555L43.75 18.75H36.1112V14.5833H45.2779C46.7352 14.5833 47.9167 15.7648 47.9167 17.2222V30.5555H48.3333C49.2539 30.5555 50 31.3018 50 32.2221V48.3333C50 49.2539 49.2539 50 48.3333 50H1.66667C0.746198 50 0 49.2539 0 48.3333V32.2221C0 31.3018 0.746198 30.5555 1.66667 30.5555H2.08333V17.2222C2.08333 15.7648 3.26482 14.5833 4.72221 14.5833H13.8889ZM27.0833 0V24.9703L31.8602 20.1935L34.8065 23.1398L25 32.9464L15.1935 23.1398L18.1398 20.1935L22.9167 24.9703V0H27.0833Z" fill="#DDDFE7"/>
  </g>
  <defs>
    <clipPath id="clip0_219_58">
      <rect width="50" height="50" fill="white"/>
    </clipPath>
  </defs>
</svg>