<svg xmlns="http://www.w3.org/2000/svg" width="50" height="50" viewBox="0 0 50 50" fill="none">
  <path d="M5.07812 6.83594C5.07812 6.83594 5.07812 42.8684 5.07812 43.1641C5.07812 46.6543 7.89375 49.4516 11.3445 49.5896V49.6094H44.8867V47.7953C42.3035 47.7953 40.2133 45.7051 40.2133 43.1219C40.2133 40.5387 42.3035 38.4484 44.8867 38.4484V38.409V0.390625H11.6797C8.11055 0.390625 5.07812 3.2668 5.07812 6.83594ZM38.399 43.1021C38.399 44.9359 39.1877 46.5924 40.4104 47.7756H11.601C9.01777 47.7953 6.90781 45.6854 6.90781 43.1021C6.90781 40.657 8.82051 38.6457 11.2264 38.4682L40.4697 38.409C39.2076 39.5922 38.399 41.2484 38.399 43.1021ZM17.5803 16.4086H19.5582V12.89C19.5582 9.45469 22.3689 6.64394 25.8043 6.64394C29.2396 6.64394 32.0504 9.45469 32.0504 12.89V16.4086H33.7992V31.3781H17.5803V16.4086ZM27.0533 24.6949L27.5529 27.6305H23.8055L24.3051 24.6949C23.618 24.2576 23.1809 23.5082 23.1809 22.6338C23.1809 21.2596 24.3051 20.1354 25.6793 20.1354C27.0535 20.1354 28.1777 21.2596 28.1777 22.6338C28.1777 23.5082 27.7404 24.2578 27.0533 24.6949ZM29.5727 12.89V16.4086H28.1777H22.0773V12.89C22.0773 10.8289 23.7637 9.14238 25.825 9.14238C27.8861 9.14238 29.5727 10.8289 29.5727 12.89Z" fill="#64C352"/>
</svg>