<svg xmlns="http://www.w3.org/2000/svg" width="50" height="50" viewBox="0 0 50 50" fill="none">
  <path d="M6.96875 8.35626C6.48944 7.97595 5.88041 7.79815 5.27177 7.86086C4.66313 7.92356 4.10315 8.22179 3.71144 8.69183C3.31974 9.16188 3.12738 9.76647 3.17546 10.3764C3.22354 10.9864 3.50824 11.5534 3.96875 11.9563L11.1812 17.9688L3.96875 23.9813C3.50824 24.3841 3.22354 24.9511 3.17546 25.5611C3.12738 26.171 3.31974 26.7756 3.71144 27.2457C4.10315 27.7157 4.66313 28.014 5.27177 28.0767C5.88041 28.1394 6.48944 27.9616 6.96875 27.5813L16.3437 19.7688C16.6075 19.5488 16.8197 19.2736 16.9653 18.9625C17.111 18.6515 17.1864 18.3122 17.1864 17.9688C17.1864 17.6253 17.111 17.2861 16.9653 16.975C16.8197 16.664 16.6075 16.3887 16.3437 16.1688L6.96875 8.35626ZM25.7812 15.625C25.1596 15.625 24.5635 15.8719 24.124 16.3115C23.6844 16.751 23.4375 17.3472 23.4375 17.9688C23.4375 18.5904 23.6844 19.1865 24.124 19.626C24.5635 20.0656 25.1596 20.3125 25.7812 20.3125H44.5312C45.1528 20.3125 45.749 20.0656 46.1885 19.626C46.6281 19.1865 46.875 18.5904 46.875 17.9688C46.875 17.3472 46.6281 16.751 46.1885 16.3115C45.749 15.8719 45.1528 15.625 44.5312 15.625H25.7812ZM17.1875 28.9063C17.1875 28.2847 17.4344 27.6885 17.874 27.249C18.3135 26.8094 18.9096 26.5625 19.5312 26.5625H44.5312C45.1528 26.5625 45.749 26.8094 46.1885 27.249C46.6281 27.6885 46.875 28.2847 46.875 28.9063C46.875 29.5279 46.6281 30.124 46.1885 30.5635C45.749 31.0031 45.1528 31.25 44.5312 31.25H19.5312C18.9096 31.25 18.3135 31.0031 17.874 30.5635C17.4344 30.124 17.1875 29.5279 17.1875 28.9063ZM19.5312 37.5C18.9096 37.5 18.3135 37.7469 17.874 38.1865C17.4344 38.626 17.1875 39.2222 17.1875 39.8438C17.1875 40.4654 17.4344 41.0615 17.874 41.501C18.3135 41.9406 18.9096 42.1875 19.5312 42.1875H44.5312C45.1528 42.1875 45.749 41.9406 46.1885 41.501C46.6281 41.0615 46.875 40.4654 46.875 39.8438C46.875 39.2222 46.6281 38.626 46.1885 38.1865C45.749 37.7469 45.1528 37.5 44.5312 37.5H19.5312Z" fill="#FF6428"/>
</svg>