<svg xmlns="http://www.w3.org/2000/svg" width="50" height="50" viewBox="0 0 50 50" fill="none">
  <path d="M42.1875 12.5H28.2812L24.6875 7.03125C24.5312 6.5625 23.9062 6.25 23.4375 6.25H7.8125C5.15625 6.25 3.125 8.28125 3.125 10.9375V39.0625C3.125 41.7188 5.15625 43.75 7.8125 43.75H42.1875C44.8438 43.75 46.875 41.7188 46.875 39.0625V17.1875C46.875 14.5312 44.8438 12.5 42.1875 12.5ZM17.1875 29.6875H10.9375C10 29.6875 9.375 29.0625 9.375 28.125C9.375 27.1875 10 26.5625 10.9375 26.5625H17.1875C18.125 26.5625 18.75 27.1875 18.75 28.125C18.75 29.0625 18.125 29.6875 17.1875 29.6875ZM21.875 23.4375H10.9375C10 23.4375 9.375 22.8125 9.375 21.875C9.375 20.9375 10 20.3125 10.9375 20.3125H21.875C22.8125 20.3125 23.4375 20.9375 23.4375 21.875C23.4375 22.8125 22.8125 23.4375 21.875 23.4375ZM43.75 36.875L30.3125 15.625H42.1875C43.125 15.625 43.75 16.25 43.75 17.1875V36.875Z" fill="#D40AD4"/>
</svg>