<svg xmlns="http://www.w3.org/2000/svg" width="50" height="50" viewBox="0 0 50 50" fill="none">
  <g clip-path="url(#clip0_219_72)">
    <path fill-rule="evenodd" clip-rule="evenodd" d="M10 5C10 2.23857 12.2386 0 15 0H35.5047L46.6667 7.44137V38.3333C46.6667 41.0947 44.428 43.3333 41.6667 43.3333H40V45C40 47.7613 37.7613 50 35 50H8.33334C5.57191 50 3.33334 47.7613 3.33334 45V11.6667C3.33334 8.90523 5.57191 6.66667 8.33334 6.66667H10V5ZM10 10H8.33334C7.41288 10 6.66668 10.7462 6.66668 11.6667V45C6.66668 45.9203 7.41288 46.6667 8.33334 46.6667H35C35.9203 46.6667 36.6667 45.9203 36.6667 45V43.3333H15C12.2386 43.3333 10 41.0947 10 38.3333V10Z" fill="#14A0FF"/>
  </g>
  <defs>
    <clipPath id="clip0_219_72">
      <rect width="50" height="50" fill="white"/>
    </clipPath>
  </defs>
</svg>